<svg width="1511" height="92" viewBox="0 0 1511 92" fill="none" xmlns="http://www.w3.org/2000/svg">
<path d="M1.57665 91.4912C1.57665 91.4912 1.57674 91.4913 1.5752 31.3456C1.57483 17.2521 4.00094 6.92747 24 16.718C43.9991 26.5085 88.4188 30.2054 117.068 10.524C124.733 2.65139 123.532 26.2786 123.833 31.3438C157.185 8.48539 202.27 2.34159 240.922 15.3893C243.032 20.3246 245.152 25.2696 247.262 30.2049C258.258 14.6496 281.061 13.0915 300.621 13.0915C352.025 13.0915 403.429 13.0715 454.834 13.0615C458.565 13.0615 463.076 13.491 464.738 16.718C466.401 19.9449 460.176 23.7812 459.199 20.3145C494.38 18.3364 529.549 16.3684 564.729 14.3902C578.926 13.591 595.524 13.7906 604.213 24.6104C605.044 19.1655 605.865 13.721 606.697 8.27614C620.083 5.84843 634.706 12.1621 641.711 23.3915C654.806 11.1131 675.135 10.444 693.427 10.524C742.462 10.7338 791.497 10.9535 840.521 11.1633C854.77 11.2233 869.03 11.2832 883.279 11.3032C891.604 2.63139 910.041 11.293 908.056 22.932C926.992 -4.05254 978.272 33.6921 1003.4 11.8727C1005.27 15.2095 1007.13 18.5462 1009 21.883C1024.42 6.07792 1051.17 12.1723 1073.05 17.3674C1094.93 22.5625 1124.58 21.8835 1132.27 1.51271C1141.27 19.8654 1167.38 21.3235 1188.43 20.0947C1238.91 17.1475 1289.4 14.2105 1339.88 11.2633C1350.39 10.6538 1362.05 10.384 1370.08 16.9278C1395.98 7.57662 1425.44 7.66651 1451.28 17.1675C1455.24 18.6262 1459.19 20.3145 1463.41 20.6941C1468.28 21.1337 1473.1 19.825 1477.8 18.5162C1489.58 15.2493 1496 -1.50197 1510.51 17.1675C1510.51 91.4911 1510.51 -0.235855 1510.51 91.4912L1.57665 91.4912Z" fill="black" stroke="black" stroke-miterlimit="10"/>
</svg>
