<svg width="1440" height="59" viewBox="0 0 1440 59" fill="none" xmlns="http://www.w3.org/2000/svg">
<path d="M1 1.21777V41.8037C1 49.9668 15.5 44.7178 25.5 41.8037C83.5 48.512 90.5 45.3936 106 49.9668C102.5 41.8037 113.649 41.6173 113.937 38.4103C145.808 52.8828 188.891 56.7729 225.826 48.512C227.842 45.3872 229.868 42.2562 231.885 39.1314C242.392 48.98 264.182 49.9668 282.873 49.9668C331.995 49.9668 347.378 45.3872 396.5 45.3936C400.065 45.3936 420.5 53.0156 430 49.9668C425.5 42.6737 434 42.6737 445 45.3936C478.618 46.646 501.636 47.8921 535.255 49.1445C548.821 49.6505 564.682 49.524 572.985 42.6737C573.78 46.121 574.564 49.5683 575.359 53.0156C588.151 54.5527 602.124 50.5551 608.818 43.4454C621.332 51.2192 640.758 51.643 658.238 51.5924C705.095 51.4595 751.153 47.6328 798 47.5C811.616 47.462 826.042 51.1117 839.658 51.099C847.613 56.5894 865.232 51.1054 863.335 43.7363C881.43 60.8211 930.433 36.9239 954.447 50.7385C956.235 48.6258 958.013 46.5132 959.8 44.4005C974.529 54.4072 1000.09 50.5487 1021 47.2595C1041.9 43.9703 1070.24 44.4005 1077.59 57.2979C1086.19 45.6782 1111.14 44.7547 1131.26 45.5327C1179.5 47.3987 1227.74 49.2583 1275.98 51.1243C1286.02 51.5102 1297.17 51.6809 1304.84 47.5378C1329.59 53.4584 1357.74 53.4015 1382.43 47.386C1386.21 46.4625 1390 45.3936 1394.03 45.1532C1398.68 44.8749 1403.29 45.7035 1407.77 46.5321C1419.04 48.6005 1434.53 55.8037 1439.03 45.1532V1.21794L1 1.21777Z" fill="#26BDBD" stroke="#26BDBD" stroke-miterlimit="10"/>
</svg>
