<svg width="1440" height="42" viewBox="0 0 1440 42" fill="none" xmlns="http://www.w3.org/2000/svg">
<path d="M1.4707 0.702263L1.47058 27.2023C3.99988 32.3986 20 34.7023 27 34.7023C14.5 22.7023 90.9707 28.5956 106.471 33.1689C102.971 25.0058 117 22.2023 117 22.2023C117 22.2023 189.5 39.2023 227 33.1689C222.5 26.7023 224.5 22.3335 232.355 22.3335C242.863 32.1821 264.653 33.1689 283.344 33.1689C332.466 33.1689 344.878 28.9937 394 29C397.565 29 416.5 31 429.5 36.5C424.029 29.2069 434 25.7023 446.471 27.5C479.657 32.284 500 33.1689 535.726 32.3466C549.292 32.8526 565.153 32.7261 573.456 25.8758C574.25 29.3231 575.035 32.7704 575.829 36.2177C588.621 37.7548 602.595 33.7572 609.289 26.6474C621.803 34.4213 641.229 34.8451 658.708 34.7945C705.565 34.6616 751.623 30.8349 798.471 30.7021C812.087 30.6641 834.971 30.4616 838.971 39.2023C849.971 37 865.703 34.3075 863.806 26.9384C881.901 44.0232 930.903 20.126 954.918 33.9406C956.706 31.8279 958.483 29.7153 960.271 27.6026C975 37.6093 1000.56 33.7508 1021.47 30.4616C1042.38 27.1724 1070.71 27.6026 1078.06 40.5C1086.66 28.8803 1111.61 27.9568 1131.73 28.7348C1179.97 30.6008 1227 26.2023 1227 39.2023C1237.97 33.7023 1300 40.2023 1305.31 30.7399C1325 34.3264 1329.5 34.3264 1342.5 39.2023C1336.97 28.7348 1362 27.785 1376 30.7399C1376 30.7399 1382 30.7399 1393.5 39.2023C1405.5 29 1423.5 33.6158 1439.5 37.2023V0.702263H1.4707Z" fill="#26BDBD" stroke="#26BDBD" stroke-miterlimit="10"/>
</svg>
