<svg width="28" height="28" viewBox="0 0 28 28" fill="none" xmlns="http://www.w3.org/2000/svg">
<path d="M2.80005 6.64961C2.80005 6.06972 3.27015 5.59961 3.85005 5.59961H24.15C24.7299 5.59961 25.2 6.06972 25.2 6.64961C25.2 7.2295 24.7299 7.69961 24.15 7.69961H3.85005C3.27015 7.69961 2.80005 7.2295 2.80005 6.64961ZM2.80005 13.6496C2.80005 13.0697 3.27015 12.5996 3.85005 12.5996H24.15C24.7299 12.5996 25.2 13.0697 25.2 13.6496C25.2 14.2295 24.7299 14.6996 24.15 14.6996H3.85005C3.27015 14.6996 2.80005 14.2295 2.80005 13.6496ZM3.85005 19.5996C3.27015 19.5996 2.80005 20.0697 2.80005 20.6496C2.80005 21.2295 3.27015 21.6996 3.85005 21.6996H24.15C24.7299 21.6996 25.2 21.2295 25.2 20.6496C25.2 20.0697 24.7299 19.5996 24.15 19.5996H3.85005Z" fill="#212121"/>
</svg>
