<svg width="630" height="24" viewBox="0 0 630 24" fill="none" xmlns="http://www.w3.org/2000/svg">
<path d="M349.993 12.2276C349.455 13.8018 348.878 15.3236 348.406 16.911C347.933 18.4852 348.314 19.4429 349.39 19.9939C352.433 21.5812 355.411 19.7184 356.88 14.707C357.576 12.3457 358.494 11.7028 360.003 11.7291C364.188 11.8209 368.372 11.6372 372.557 11.7815C375.876 11.8996 379.038 13.6575 382.305 14.4315C393.088 17.0159 403.898 17.8949 414.76 15.6909C415.154 15.6122 415.574 15.481 416.033 16.0845C415.613 17.6456 414.892 19.0887 414.669 20.8466C414.419 22.6963 414.747 23.6409 416.033 23.7852C418.42 24.0476 420.349 22.0535 420.847 18.0523C421.175 15.3761 422.107 14.589 423.602 14.3791C433.074 13.0147 442.559 11.834 452.083 12.4637C457.816 12.8442 463.496 13.9986 469.177 15.1924C472.378 15.8615 475.618 16.0976 478.845 16.5305C480.197 16.7142 480.892 17.2652 479.842 19.5478C478.911 21.5944 479.475 22.88 480.971 23.326C482.991 23.9295 484.644 22.9062 485.602 20.0988C486.428 17.6325 487.556 16.8454 489.301 16.6748C496.844 15.9271 504.335 14.4053 511.747 12.0439C512.272 11.8734 512.823 11.8603 513.361 11.8603C521.796 11.8603 530.231 11.8734 538.667 11.9127C539.244 11.9127 540.018 11.5323 540.359 12.4375C540.753 13.4607 539.979 14.1036 539.69 14.8644C538.09 18.8525 538.509 20.2038 541.514 20.6498C544.426 21.0959 546.328 18.6951 547.443 14.8907C548.165 12.3981 549.201 11.939 550.762 11.8603C558.686 11.4667 566.492 12.49 574.297 14.8382C584.569 17.9342 594.972 17.462 605.349 16.0845C605.664 16.0451 605.992 16.0058 606.478 15.9533C606.032 17.8818 605.612 19.5216 605.258 21.2008C604.89 22.9456 605.376 23.7327 606.517 23.9033C608.734 24.2312 610.754 22.4602 611.253 18.9313C611.751 15.3761 613.089 14.6021 615.136 14.3922C619.636 13.933 624.135 13.1721 628.635 12.5031C629.212 12.4112 630.052 12.5031 630.013 11.2306C629.973 9.76126 629.055 9.97116 628.425 9.95804C624.044 9.91868 619.649 9.94492 615.267 9.94492C609.39 9.94492 603.526 9.90557 597.649 9.97116C596.271 9.98428 595.458 9.40705 594.959 7.13751C593.949 2.45412 591.562 0.276413 588.347 0.446956C587.022 0.525669 586.524 1.40462 586.747 3.45115C586.996 5.66821 587.705 7.54419 588.623 9.21027C588.006 10.2335 587.364 9.9318 586.799 9.9318C579.505 9.97116 572.225 9.9318 564.931 9.9974C562.805 10.0105 560.824 8.79047 558.738 8.48874C557.82 8.35756 557.623 7.20311 557.518 5.96994C557.217 2.55907 555.813 0.879875 553.766 0.223938C552.009 -0.340168 551.484 0.342006 551.667 3.04447C551.93 6.83578 551.917 7.0588 549.503 6.639C545.121 5.87811 540.74 6.12737 536.358 6.06178C528.565 5.94371 520.917 8.02959 513.256 10.0105C510.829 10.6402 508.415 10.3254 505.988 10.4041C504.676 10.4434 504.151 9.11844 503.653 7.4786C502.262 2.9264 499.993 1.12913 496.897 1.92937C494.68 2.5066 494.417 3.29372 495.336 6.56029C496.398 10.3647 496.398 10.4041 493.67 10.4041C481.18 10.4041 468.691 10.8108 456.216 10.2991C440.224 9.64319 424.245 10.9551 408.253 10.4303C406.115 10.3647 404.593 10.1811 404.055 6.0093C403.531 1.98185 399.359 -0.825561 396.893 0.446956C396.263 0.774925 396.027 1.35215 396.145 2.33605C396.342 4.00213 396.604 5.61574 397.155 7.11127C398.165 9.83997 398.06 10.1155 395.974 10.1942C393.416 10.2991 390.845 10.4172 388.287 10.3516C381.963 10.1811 375.601 11.0338 369.33 8.68552C367.848 8.13454 367.034 7.36053 366.798 5.03851C366.601 3.14942 365.945 1.70635 364.778 0.997943C363.728 0.368244 362.613 -0.996105 361.551 0.171463C360.58 1.2472 361.144 3.08382 361.367 4.59248C361.721 7.01944 360.606 6.69148 359.793 6.54717C354.677 5.66821 349.547 5.96994 344.431 5.93059C337.714 5.87811 331.155 7.91152 324.543 9.3677C321.368 10.0761 318.206 9.63007 315.045 9.74814C313.877 9.7875 313.418 8.61993 313.051 7.15063C311.818 2.34917 309.036 1.31279 306.216 1.70636C304.117 1.99497 303.828 3.05759 304.668 6.14049C305.652 9.73502 305.652 9.76126 303.199 9.76126C289.831 9.73502 276.463 9.82685 263.108 9.5776C259.487 9.512 255.879 8.37067 252.259 7.76721C251.353 7.62291 251.012 6.79643 250.815 5.53703C250.356 2.58531 249.097 0.879875 247.26 0.0665128C245.24 -0.825561 244.387 0.145225 244.991 3.22813C245.581 6.23232 244.899 6.639 243.233 6.54717C239.599 6.36351 235.965 5.82564 232.318 5.81252C224.119 5.77316 216.038 7.15063 207.97 9.31522C204.887 10.1417 201.778 9.59072 198.668 9.65631C197.593 9.68255 197.199 8.5281 196.806 7.21623C195.507 2.95264 192.778 0.801162 189.826 1.60141C188.003 2.09992 187.636 3.08382 188.357 5.72069C188.698 6.95385 189.118 8.13454 189.551 9.52512C185.681 10.7845 181.968 9.9318 178.282 10.0892C170.398 10.4172 162.513 10.1417 154.629 10.1942C152.32 10.2073 150.05 9.95804 147.807 9.10532C143.071 7.29494 138.322 7.25558 133.56 8.89542C130.582 9.91868 127.565 10.2467 124.521 10.2073C116.558 10.1023 108.595 10.1286 100.632 10.1942C99.071 10.1942 98.0872 9.82685 97.5624 6.98009C96.7097 2.2967 94.1121 -0.0777933 91.0555 0.118988C89.6255 0.210819 89.0352 1.18161 89.455 3.33308C89.7305 4.73678 90.0191 6.19296 90.5176 7.42613C91.3834 9.5776 90.6619 10.1548 89.5074 10.1023C80.285 9.69567 71.0101 11.5323 61.8531 8.39691C60.8693 8.05582 60.3314 7.64914 60.1477 5.93059C59.7148 2.06056 58.4816 0.394481 55.976 -0.287693C54.5854 -0.668137 54.0606 0.210819 54.2574 2.30982C54.3099 2.83457 54.3492 3.37243 54.4673 3.85783C55.1626 6.41598 54.7953 7.03256 52.9456 6.73083C42.9753 5.10411 33.0051 5.41896 23.1004 7.95087C18.3514 9.1578 13.6156 9.87933 8.80103 9.63007C7.51538 9.56448 6.72821 8.98726 6.16412 6.99321C4.8916 2.38853 1.66443 0.394481 -1.4447 1.86378C-3.25513 2.7165 -2.54675 4.57936 -2.16626 6.17984C-1.35291 9.60384 -1.31354 9.60384 -3.71429 9.59072C-17.5546 9.56448 -31.3949 9.49889 -45.222 9.52512C-46.1797 9.52512 -47.9244 8.68552 -47.8983 10.8239C-47.872 12.8966 -46.1403 12.057 -45.1695 12.0046C-39.5153 11.6766 -34.071 14.1167 -28.4956 14.8644C-25.1372 15.3236 -21.7919 15.9927 -18.4335 16.4781C-17.3709 16.6355 -16.5051 16.4125 -17.3971 18.8657C-18.4466 21.7387 -17.9219 22.7226 -15.7573 22.9718C-13.7632 23.208 -12.3202 22.1322 -11.5462 19.1805C-11.0477 17.2783 -10.2081 16.5961 -8.88306 16.4649C-1.27423 15.7172 6.29529 14.3397 13.7861 12.0308C14.7044 11.7422 15.6621 11.5716 16.5935 11.5716C24.7665 11.5323 32.9263 11.5454 41.0993 11.5716C41.729 11.5716 42.5948 11.0338 42.9491 12.1226C43.2377 13.0147 42.5424 13.7887 42.2407 14.5758C40.627 18.7738 40.9419 19.784 44.051 20.2694C46.7272 20.6892 48.8918 18.8788 49.9938 14.6545C50.6629 12.1226 51.6468 11.5848 53.2341 11.4929C62.0368 11.0207 70.7476 12.2407 79.4454 14.1036C88.353 16.0189 97.3262 16.2157 106.299 16.032C108.713 15.9795 108.713 15.9927 108.07 19.5478C107.428 23.1293 107.9 24.0344 110.248 23.4835C112.032 23.0637 113.515 21.8305 113.908 18.8132C114.249 16.1894 115.246 15.3367 116.834 14.9694C127.184 12.5424 137.575 10.5221 148.056 11.7028C153.015 12.2669 157.922 13.9724 162.867 14.9694C165.74 15.5466 168.64 15.7434 171.526 16.137C172.943 16.3337 174.215 16.6092 172.93 19.6266C172.116 21.5419 172.628 22.7357 174.071 23.1293C176.262 23.7196 178.033 22.4602 179.095 19.2068C179.554 17.8162 179.974 16.5305 181.103 16.5043C191.309 16.255 201.24 11.283 211.446 11.7947C218.189 12.1358 224.919 11.2699 231.649 12.1226C233.249 12.3325 233.774 12.5687 232.738 15.0743C231.137 18.9181 231.36 19.5085 234.181 20.2563C237.067 21.0171 239.468 19.2068 240.622 14.9956C241.199 12.8704 242 12.1751 243.39 12.1882C250.409 12.2538 257.427 12.0308 264.446 12.3194C267.66 12.4506 270.874 13.382 274.075 14.1823C278.876 15.3892 283.717 15.8615 288.545 16.6617C289.765 16.8585 290.08 17.2521 289.398 19.1543C288.348 22.0929 288.65 22.7357 290.749 23.1948C292.9 23.6671 294.422 22.329 295.406 19.3904C295.852 18.0523 296.193 16.7667 297.387 16.7011C305.363 16.255 313.208 14.2216 321.066 12.2407C322.745 11.8209 324.425 11.7291 326.104 11.7422C333.254 11.7553 340.416 11.7422 347.566 11.7553C348.353 11.7553 349.167 11.4405 350.019 12.2145L349.993 12.2276ZM381.006 11.8865C395.646 11.8865 410.287 11.9127 424.927 11.9127C410.287 15.0219 395.646 16.7011 381.006 11.8865ZM159.076 11.7422L197.344 11.7684C184.592 15.7172 171.828 15.5597 159.076 11.7422ZM465.766 11.939C478.504 11.939 491.229 11.9521 503.968 11.9652C491.216 15.7172 478.465 15.8877 465.766 11.939ZM120.376 11.6635C112.085 15.4679 83.5253 14.3397 76.4543 11.6372L120.376 11.6635ZM610.387 12.3063C598.121 15.9927 577.459 15.6647 571.765 12.2801C584.609 12.2801 597.504 12.2932 610.387 12.3063ZM278.181 12.5556C289.516 11.8603 300.824 11.5979 312.146 12.2145C300.837 15.2449 289.503 15.6778 278.181 12.5556ZM5.54755 11.9783C-3.97668 15.258 -21.8706 15.1531 -28.981 12.1358C-17.3578 11.5061 -5.89203 11.4798 5.54755 11.9783ZM365.801 9.91868C354.519 9.512 343.25 11.1256 331.968 9.512C343.25 6.83578 354.532 6.49469 365.801 9.91868ZM57.97 9.68255C47.0684 9.47265 36.1798 10.3385 25.2781 9.53824C36.1798 7.04568 47.0814 6.95385 57.97 9.68255ZM555.747 9.86621C544.754 9.42017 533.76 10.7583 522.78 9.70879C533.787 6.88826 544.78 6.87514 555.747 9.86621ZM247.811 9.59072C237.12 9.59072 226.428 9.5776 215.736 9.56448C226.454 6.8489 237.172 7.59667 247.811 9.59072Z" fill="#0A0775"/>
</svg>
