<svg width="150" height="160" viewBox="0 0 150 160" fill="none" xmlns="http://www.w3.org/2000/svg">
<g id="logo 1" clip-path="url(#clip0_369_253)">
<g id="&#208;&#161;&#208;&#187;&#208;&#190;&#208;&#185; 1">
<g id="Group">
<path id="Vector" d="M74.8683 160C72.8539 155.398 71.3096 150.705 71.2326 145.586C71.1921 142.886 70.3308 140.318 68.7703 138.045C68.6669 137.895 68.5555 137.751 68.6994 137.484C70.2213 137.764 71.2306 138.764 71.9865 140.016C72.8093 141.375 73.5267 142.797 74.2725 144.203C75.225 146.002 76.1815 146.216 77.7015 144.928C81.1528 141.999 82.9645 138.223 83.0719 133.747C83.1591 130.044 79.7726 127.585 76.2768 128.606C74.8034 129.038 73.8124 130.022 73.5409 131.535C73.2916 132.923 73.4011 134.278 74.7589 135.181C75.5553 135.71 76.3659 135.781 77.1887 135.284C77.8555 134.881 78.2568 134.312 78.1919 133.484C78.1108 132.455 77.3833 132.019 76.5605 132.611C75.8107 133.149 75.7316 132.75 75.6951 132.147C75.6161 130.846 76.7895 129.757 78.0683 129.994C79.0471 130.174 79.9327 130.622 80.3117 131.594C81.7567 135.294 80.8184 137.77 76.8179 138.653C73.9503 139.287 70.9327 137.521 69.127 134.553C66.764 130.67 65.7243 126.368 65.0353 121.95C65.0029 121.744 65.0637 121.523 65.0778 121.318C65.6352 121.241 65.5723 121.693 65.702 121.936C66.6728 123.743 68.5636 124.589 70.5334 124.081C72.3351 123.615 72.6735 122.673 71.6075 121.075C70.1403 118.879 68.7622 116.639 67.834 114.146C67.0943 112.159 66.7153 110.109 66.8471 108.002C66.9079 107.028 66.6525 106.716 65.6797 106.718C63.8619 106.722 62.04 106.84 60.2242 106.546C59.3041 106.398 59.0609 106.009 59.3608 105.167C59.5594 104.612 59.7155 104.04 59.8878 103.475C60.4039 101.763 61.5279 100.838 63.26 100.7C65.5338 100.52 67.0396 99.1263 67.607 96.8658C67.7225 96.408 67.2422 95.1097 68.7014 95.6606C69.05 95.7923 68.9182 95.2879 68.9182 95.0529C68.9223 93.4791 68.9203 91.9052 68.9203 90.3051C69.9295 90.3719 69.8849 90.9937 70.0653 91.413C70.6489 92.7701 71.6237 93.6452 73.0991 93.8639C73.701 93.9531 74.5055 94.2204 74.8197 93.5075C75.0993 92.8714 75.154 92.0612 74.5988 91.4475C72.181 88.7677 71.188 85.4539 70.6611 82.0307C70.2598 79.4238 70.345 76.7542 71.723 74.3397C71.9905 73.8698 72.2297 73.0474 72.9856 73.4302C73.6017 73.7422 73.2065 74.3964 73.0403 74.8866C72.8174 75.5368 72.6269 76.1769 72.6694 76.8818C72.7687 78.5184 73.7091 79.0815 75.152 78.2753C76.8422 77.3294 77.9447 75.8406 78.1129 73.9407C78.3865 70.8578 78.121 67.9592 75.681 65.4921C73.6422 63.4301 71.3684 62.4821 68.6892 63.1546C65.8338 63.8737 64.0504 65.9803 63.3958 68.8545C62.9459 70.8254 62.8121 72.8367 64.3402 74.522C64.5854 74.7914 64.6766 75.075 64.3726 75.3525C64.0017 75.6907 63.6815 75.4234 63.4039 75.2046C60.5788 72.9725 58.4874 70.3311 58.6637 66.4765C58.7893 63.7197 59.7398 61.2992 61.4199 59.0792C62.8344 57.2117 64.4253 55.417 65.0252 53.037C65.2562 52.1215 65.779 52.3038 66.2776 52.8689C66.7964 53.4563 66.7113 54.1187 66.5106 54.7992C66.16 55.9862 65.5906 57.0699 64.9481 58.1191C64.784 58.3885 64.5651 58.7025 64.7739 59.0023C64.9785 59.298 65.3676 59.2068 65.6656 59.1744C66.8227 59.0468 67.5341 58.3196 68.0002 57.317C70.4179 52.1134 69.3377 47.8111 63.639 43.92C62.2447 42.968 61.7705 42.9842 63.2235 41.2098C64.8833 39.1823 66.9524 37.6449 69.4472 36.385C68.0954 36.3485 65.4892 37.7462 64.2551 39.1418C63.5437 39.9439 62.9418 40.0289 62.267 39.1458C62.0501 38.8602 61.9164 38.5888 62.1879 38.2991C63.72 36.6544 63.6694 34.6734 63.4262 32.6438C63.4079 32.4838 63.4566 32.3177 63.4667 32.2103C63.7869 32.0523 63.9369 32.2103 64.0078 32.3541C65.1771 34.6815 67.3557 34.8942 69.5748 35.0218C69.9741 35.0441 70.347 34.9955 70.7381 35.2547C71.4535 35.7287 71.7291 36.2594 71.5609 37.1446C71.3461 38.2748 71.4758 39.4051 72.0392 40.4563C72.7931 41.8661 73.932 42.6318 75.5492 42.5973C76.368 42.5811 77.1867 42.4758 78.0055 42.4778C78.4777 42.4778 79.1302 42.2449 79.3754 42.7817C79.6409 43.363 78.9478 43.5838 78.6418 43.9403C78.583 44.0091 78.504 44.0598 78.4371 44.1226C76.6558 45.7835 76.1086 48.3155 77.1219 50.2073C77.9224 51.7002 80.6116 52.6562 82.6828 52.2835C85.3194 51.8095 87.346 50.3592 89.1436 48.4836C89.4131 48.202 89.6563 47.7037 90.1103 47.8415C90.6108 47.9934 90.3555 48.5484 90.4588 48.9191C91.6383 53.1201 92.6455 57.4385 96.4717 60.2014C100.343 62.9966 106.432 61.6679 108.611 57.1691C109.051 56.2637 109.758 56.0693 110.769 56.3083C121.111 58.7713 129.361 64.613 136.466 72.2433C141.561 77.7143 145.6 83.9043 148.523 90.8074C149.145 92.2739 149.583 93.791 149.966 95.3284C150.053 95.6788 149.994 95.9725 149.643 96.1265C149.191 96.323 149.127 95.9462 148.995 95.6626C145.304 87.7367 140.112 81.0949 132.545 76.4969C128.48 74.0278 124.25 71.9739 119.449 71.3642C117.641 71.1333 115.826 70.8963 114.014 70.9935C112.658 71.0664 112.184 70.5661 112.281 69.2981C112.299 69.049 112.364 68.737 111.839 68.5345C111.995 70.3939 111.712 72.1481 111.365 73.8961C110.453 78.5042 108.068 82.4216 105.557 86.2762C104.886 87.3052 104.181 88.3119 103.459 89.3044C102.965 89.985 102.422 90.4489 101.411 90.3091C100.387 90.1673 99.4792 91.5731 99.842 92.8005C100.055 93.5216 99.8318 93.9004 99.4103 94.3521C98.0687 95.7923 96.6035 97.0603 94.8707 98.0345C92.2382 99.5152 89.8853 98.4417 89.3158 95.4418C88.791 92.677 90.7608 90.4023 93.5129 90.5866C94.0783 90.6251 94.5789 90.7973 94.9923 91.1902C95.2173 91.4049 95.5375 91.6014 95.4443 91.968C95.3531 92.3245 95.0166 92.2131 94.7572 92.2172C94.1574 92.2273 93.825 92.6 93.7237 93.1185C93.6244 93.6229 93.9486 93.9895 94.3884 94.1961C94.968 94.4696 95.3206 94.0949 95.651 93.6898C96.4717 92.6851 96.5021 91.4029 96.7595 90.2321C97.1243 88.5752 97.9775 87.7589 99.6758 87.5179C102.359 87.1391 103.269 85.778 102.764 83.0637C102.574 82.0388 102.764 81.3501 103.559 80.6067C106.781 77.5927 108.852 73.8212 110.398 69.7356C110.455 69.5837 110.615 69.4257 110.283 69.1361C109.756 70.8375 108.437 70.9266 106.955 70.9165C101.149 70.874 95.7827 72.6909 90.5278 74.9312C89.9015 75.1985 89.251 75.4092 88.6167 75.6563C88.3228 75.7718 87.9945 76.0067 87.7452 75.7049C87.4514 75.3484 87.7736 75.0243 87.9722 74.7367C88.333 74.2121 88.7342 73.7158 89.0868 73.1872C91.7842 69.1361 89.8347 65.4415 86.9042 62.8386C86.6874 62.6462 86.3895 62.3849 86.047 62.5814C85.7045 62.7779 85.8382 63.1445 85.8362 63.4483C85.8261 64.8601 85.818 66.2699 85.8301 67.6817C85.8504 70.2015 85.3012 72.5532 83.7934 74.6233C82.089 76.9628 81.8175 79.5575 82.5004 82.2839C82.8146 83.5357 83.459 84.5788 84.9567 84.6274C85.6761 84.6497 85.745 84.9475 85.6112 85.5916C85.2201 87.4875 84.0852 88.9702 83.0152 90.4955C82.6241 91.0525 82.1883 91.5791 81.8195 92.1503C81.2358 93.0497 81.2034 93.8984 82.0303 94.7329C82.8328 95.5452 83.6576 95.5917 84.6162 95.0854C86.3611 94.1617 86.511 94.184 86.3124 96.1609C85.9497 99.7684 84.8979 103.111 81.7992 105.422C81.5804 105.584 81.3554 105.75 81.1771 105.95C80.9055 106.256 80.6157 106.629 80.7515 107.036C80.8954 107.463 81.3838 107.328 81.7161 107.334C83.7367 107.364 85.6457 107.125 86.7218 105.055C86.8191 104.869 86.9853 104.597 87.2406 104.729C87.5872 104.909 87.6561 105.294 87.7047 105.659C88.0087 107.935 87.9621 110.228 87.4494 112.44C86.5151 116.461 85.1249 120.299 81.7121 122.995C80.9866 123.569 80.5083 124.324 81.0129 125.1C81.5358 125.902 82.5085 126.105 83.455 125.716C85.897 124.713 87.8547 123.19 88.7119 120.579C88.87 120.632 89.0139 120.652 89.0179 120.686C89.4881 125.501 89.6421 130.338 88.872 135.11C88.1668 139.473 85.899 143.255 83.0679 146.534C79.6389 150.508 76.8523 154.679 76.2423 160.02H74.8744L74.8683 160ZM82.2552 113.487C82.3221 112.548 82.2127 111.567 81.7465 110.648C80.9298 109.039 79.5558 108.717 78.0338 109.685C77.1786 110.228 76.903 111.087 76.5868 111.914C75.8147 113.935 75.377 116.013 76.2545 118.118C76.9982 119.898 78.6945 120.23 80.0665 118.904C81.5743 117.445 82.389 115.689 82.2552 113.485V113.487ZM79.799 101.124C79.7828 99.5537 79.497 98.2918 78.9032 97.0886C78.4331 96.1346 77.9852 96.1872 77.3286 96.9408C75.7681 98.7374 75.758 102.396 77.3326 104.144C77.8251 104.69 78.2284 104.632 78.6864 104.131C79.5335 103.208 79.8679 102.12 79.797 101.124H79.799ZM80.3543 85.225C80.4475 84.1474 80.2306 83.0901 79.7179 82.1036C79.5396 81.7613 79.3998 81.3238 78.8424 81.8383C77.2394 83.3169 76.601 87.2728 77.7359 89.0918C78.2243 89.8736 78.733 89.9526 79.2741 89.1282C80.0462 87.9534 80.3867 86.6611 80.3522 85.225H80.3543ZM68.9405 96.726C69.0196 99.262 69.6802 101.085 71.1475 102.754C72.0473 103.777 73.0119 104.741 73.9584 105.724C74.2259 106.001 74.4366 106.315 74.3373 106.692C74.2016 107.21 73.7354 106.975 73.4173 106.979C72.1891 106.989 70.961 106.931 69.7329 106.955C69.3661 106.963 68.8108 106.724 68.6487 107.206C68.4785 107.715 68.9507 107.996 69.3418 108.241C70.6773 109.082 74.5177 108.229 75.3567 106.913C75.6343 106.479 75.535 106.208 75.1277 105.894C72.104 103.574 70.1038 100.54 68.9405 96.724V96.726Z" fill="#26BDBD"/>
<path id="Vector_2" d="M49.6961 70.9854C50.8452 72.1582 51.8625 73.0616 52.7259 74.0967C56.5014 78.6278 54.9369 86.8941 49.7083 88.7454C44.6236 90.5441 39.476 89.7157 37.2285 84.587C36.0896 81.9862 35.437 79.1403 37.7879 76.6813C39.2268 75.1743 41.0183 74.4268 43.0935 74.8664C44.9113 75.2512 46.1374 76.3936 46.5934 78.2733C46.7636 78.9742 46.6684 79.6224 46.4029 80.2645C46.2773 80.5683 46.0726 80.8519 45.7118 80.8073C45.3653 80.7648 45.3997 80.4265 45.3572 80.1611C45.2255 79.3489 44.5648 79.1808 43.9345 79.1727C43.3083 79.1646 42.7895 79.5373 42.6274 80.1794C42.449 80.8903 42.8158 81.4433 43.3955 81.7877C44.1899 82.2576 45.0532 82.2981 45.8679 81.8241C46.8792 81.2367 47.2176 80.2361 47.2379 79.1585C47.2865 76.4443 45.0512 74.1878 42.3072 74.2182C39.9421 74.2445 37.5791 74.3924 35.2161 74.4653C31.7649 74.5706 28.5628 73.7543 25.6324 71.8908C24.1287 70.9348 24.0091 70.5601 25.0082 69.132C25.3466 68.65 25.7317 68.1962 26.133 67.7648C27.357 66.4549 28.7952 66.172 30.4476 66.9161C31.1569 67.2341 31.8783 67.5035 32.8775 67.2037C31.9493 65.9378 31.7932 64.5401 31.9533 63.0716C32.0445 62.2432 31.5034 62.4518 31.0819 62.6584C29.6369 63.3653 28.348 64.2991 27.2739 65.4982C26.1512 66.75 25.0001 67.9836 24.1084 69.4237C23.7902 69.9382 23.4295 70.1327 23.2329 69.3609C21.8731 64.0459 21.9805 58.7633 23.6443 53.5252C23.6808 53.4077 23.8125 53.3186 23.9361 53.1748C24.4671 53.4584 24.4448 53.9992 24.5157 54.4468C24.7184 55.731 25.4764 56.6911 26.2991 57.6067C26.6943 58.0482 27.1848 58.2265 27.7319 57.7566C28.04 57.4912 28.4027 57.2887 28.7311 57.0456C29.4971 56.4784 30.4618 56.0288 30.861 55.172C31.3474 54.1329 30.1314 53.5657 29.8112 52.719C27.8394 47.4931 29.0796 39.7616 35.7066 37.6105C39.5774 36.3546 45.5598 37.8211 47.3899 40.821C48.77 43.0835 49.2057 48.8361 47.098 51.3133C44.5202 54.3435 39.0971 53.4401 37.4211 50.4605C36.5192 48.8583 36.9043 46.4824 38.3188 45.3784C39.1254 44.7485 40.009 44.4913 40.9798 44.9916C41.4195 45.2184 41.9789 45.4331 42.0478 45.9638C42.1248 46.5553 41.4661 46.3791 41.148 46.5634C40.5907 46.8875 40.5562 47.3959 40.7913 47.8577C41.1074 48.4836 41.6384 48.2588 42.066 47.9549C42.7692 47.4546 43.0023 46.7153 42.8158 45.9071C42.5767 44.87 42.0295 44.072 40.8622 43.8937C39.1112 43.6263 37.3663 44.4872 36.5132 46.0509C35.1553 48.5424 36.4402 53.0391 38.9066 54.4043C39.2896 54.617 39.7111 54.5542 40.1103 54.4833C43.6224 53.8513 46.8994 54.6919 50.0244 56.1888C51.3559 56.8268 52.8353 57.2178 53.9438 58.2974C54.337 58.6802 54.4849 59.0225 54.416 59.6018C54.1262 61.99 54.1181 64.4571 54.8092 66.7054C55.559 69.1503 55.9117 71.8483 57.8227 73.8374C58.0011 74.0217 58.2868 74.2384 58.0923 74.5301C57.8754 74.8522 57.5613 74.761 57.2472 74.603C55.8265 73.8921 54.4262 73.1568 53.1798 72.1481C52.2476 71.3926 51.1917 70.9267 49.7042 70.9874L49.6961 70.9854ZM50.7297 64.0277C47.9168 61.6699 45.7321 60.8131 43.9832 61.277C44.9924 62.8326 45.0917 64.4672 44.2365 66.3105C45.6977 66.1747 46.5488 65.3119 47.3777 64.5523C48.4072 63.6084 49.3658 62.9744 50.7297 64.0277Z" fill="#26BDBD"/>
<path id="Vector_3" d="M41.1985 25.8563C40.3879 26.4032 39.5489 26.9116 38.7747 27.5051C37.9033 28.1736 37.5628 28.1877 37.3723 26.9238C36.2638 19.5488 32.699 13.4802 27.0104 8.75464C22.9369 5.36996 18.0083 3.7799 12.8324 2.85422C8.91699 2.15339 4.97933 1.94678 1.01937 1.89006C0.670801 1.88399 0.289802 1.99539 0 1.68346C3.51816 -1.84707 38.11 0.640302 44.1776 4.85547C42.072 6.08902 41.6586 6.96204 42.2807 9.39877C43.4703 14.0515 45.6408 17.9425 50.5674 19.5751C50.8674 19.6744 51.1471 19.8263 51.4348 19.96C51.4693 19.9762 51.4855 20.0268 51.6213 20.2192C48.7678 21.4447 45.9245 22.6499 43.4237 24.5316C43.8128 24.9185 44.0236 24.5964 44.2708 24.4506C46.7331 23.0003 49.2015 21.5743 51.9394 20.677C52.6609 20.44 53.0561 20.5292 53.2202 21.307C53.3033 21.706 53.4411 22.0929 53.5627 22.4838C54.195 24.5134 54.1423 24.4243 52.4015 25.4998C49.9899 26.9906 48.8631 29.1965 49.2198 32.0788C49.2562 32.3705 49.4974 32.729 49.1488 32.9579C48.8165 33.1767 48.5652 32.8546 48.3017 32.7108C46.5122 31.7385 44.7451 30.7116 42.6658 30.4402C45.5172 31.3942 47.8052 33.3894 50.5127 34.6047C52.2718 35.3946 53.658 35.3663 54.9449 34.4183C52.1563 34.8396 50.9484 34.4244 50.1196 32.7635C49.2096 30.9384 49.7568 28.5989 51.37 26.8954C54.2741 23.8247 60.21 25.1292 61.9427 28.842C63.5538 32.2956 63.6997 36.0388 60.6335 38.915C58.1104 41.2809 55.1577 41.9149 51.8097 40.9244C49.3414 40.1952 47.2742 38.6355 44.8646 37.7848C42.1368 36.8206 39.3928 35.9415 36.4908 36.6363C31.8397 37.7504 29.722 41.2039 28.6823 45.5244C28.0358 48.2143 27.8129 50.8698 29.1423 53.4949C30.0543 55.2956 29.9125 55.2997 28.1493 56.5008C27.3853 57.0214 26.9394 56.8675 26.449 56.2335C24.5602 53.7988 23.5794 51.1615 24.8703 48.1414C27.286 42.4962 29.6064 36.7842 34.1865 32.413C34.7195 31.9046 35.2343 31.3314 35.9598 31.1896C36.8961 31.0073 36.4036 30.0452 37.0359 29.5773C38.5194 28.4794 39.8873 27.2094 41.3971 26.1237C41.3323 26.0326 41.2654 25.9414 41.2006 25.8503L41.1985 25.8563ZM55.6927 34.0233C56.1507 33.4866 56.5439 33.0875 56.5641 32.5082C56.5925 31.7689 56.3371 31.1268 55.5751 30.9182C55.1658 30.8068 54.576 30.8048 54.4139 31.3294C54.1768 32.0889 54.4747 32.7351 55.2955 32.8789C56.1406 33.0268 55.5285 33.5696 55.6927 34.0233Z" fill="#26BDBD"/>
<path id="Vector_4" d="M86.8353 25.5805C87.119 26.6682 87.0886 27.4197 86.1746 27.7357C85.2302 28.0618 83.7042 27.4764 83.2806 26.6703C82.7983 25.7567 83.1286 24.349 83.9697 23.7231C86.7663 21.6429 89.7961 22.3923 91.2735 25.5279C91.3464 25.6838 91.4235 25.8398 91.5065 26.014C92.2888 25.2504 94.516 25.7183 95.045 26.6925C95.1909 26.9619 95.0814 27.0693 94.8707 27.2253C93.7601 28.0476 94.1918 29.0057 94.7937 29.824C95.4118 30.6667 97.0168 30.7882 97.7302 30.0124C98.2997 29.3926 98.5874 29.5749 99.0151 30.0529C103.536 35.131 107.851 40.3407 109.922 46.9946C110.094 47.5456 110.516 48.3639 109.967 48.5968C109.213 48.9168 109.205 47.898 108.964 47.4524C106.73 43.3182 103.662 39.968 99.6919 37.4543C99.0556 37.0512 98.5591 36.715 98.6726 35.771C98.8043 34.6894 97.8234 34.4504 97.0249 34.343C96.0846 34.2175 95.122 34.2762 94.1695 34.4443C92.1875 34.7907 90.9067 34.1101 90.1872 32.2567C89.9947 31.7584 89.9055 31.5822 89.3685 31.8415C86.3651 33.2877 83.4488 32.8016 80.5994 31.3614C77.5575 29.8261 74.542 28.2401 71.4838 26.7371C69.5647 25.7932 67.9616 26.7432 67.8157 28.8335C67.7549 29.7147 68.1258 30.296 69.2566 30.5006C68.7115 29.4493 68.596 28.4771 69.5444 27.8228C70.2922 27.3063 71.2001 27.284 72.0087 27.7438C73.0281 28.3231 73.6928 29.2103 73.4983 30.4317C72.9876 33.6381 70.7421 35.4328 67.1287 34.0878C64.3158 33.0406 62.7513 30.0124 63.1424 26.7432C63.4444 24.2153 65.7972 22.1979 68.6831 21.7219C72.7424 21.0514 76.0416 22.5381 79.1484 24.9364C80.6886 26.1274 81.9593 27.6608 83.7204 28.5682C85.137 29.2974 86.7441 29.0037 87.5263 27.8998C88.1424 27.0288 88.0472 26.5447 86.8413 25.5805H86.8353Z" fill="#26BDBD"/>
<path id="Vector_5" d="M27.1807 81.3136C29.4261 82.0043 31.3737 82.5653 33.4489 82.4236C34.215 82.3709 35.056 81.8483 35.7086 82.2575C36.3976 82.6889 36.0206 83.6753 36.2355 84.4045C37.2508 87.8804 39.9097 89.8836 44.0642 90.3212C47.2034 90.6533 49.9514 89.3874 52.7501 88.3766C54.9855 87.5684 57.1985 86.8068 59.6041 86.7785C63.4627 86.7319 66.2492 89.043 67.1734 92.8227C68.4542 98.0608 64.0018 100.317 60.6153 99.8676C58.4003 99.5739 56.9999 97.0986 57.8794 95.0042C58.224 95.0083 58.3111 95.2959 58.4367 95.5268C58.7306 96.0656 59.1379 96.335 59.7763 96.1871C60.5363 96.0109 60.7653 95.4012 60.8626 94.7713C60.9558 94.1656 60.5748 93.7585 60.0276 93.5073C59.1157 93.086 58.2402 93.3109 57.3931 93.6775C52.359 95.859 47.0899 96.8434 41.6181 96.6692C39.9259 96.6145 38.4019 96.0231 37.0035 94.9151C32.5248 91.3724 29.647 86.7157 27.1807 81.3115V81.3136Z" fill="#26BDBD"/>
<path id="Vector_6" d="M52.2495 72.2207C52.9851 72.4334 53.51 72.9033 54.0288 73.357C55.2468 74.4245 56.6593 75.1638 58.1691 75.656C59.1946 75.9903 59.8674 76.5675 60.4491 77.4466C62.2507 80.171 64.5367 82.4355 67.2564 84.2545C68.0184 84.7649 68.8716 85.3665 69.7187 85.3361C71.1758 85.2835 71.4149 86.043 71.3886 87.147C71.3521 88.7573 72.2418 89.8693 73.326 90.878C73.9948 91.5019 74.4062 92.3648 73.9178 93.0575C73.3969 93.7948 72.6207 92.9805 71.9702 92.8043C71.1738 92.5876 70.9204 91.8523 70.584 91.2143C70.353 90.7747 70.1605 90.3149 69.9152 89.8814C69.7085 89.5169 69.3498 89.4358 68.9648 89.525C68.5696 89.6161 68.5372 89.9706 68.5149 90.2825C68.4683 90.9631 68.4541 91.6457 68.4379 92.3283C68.4257 92.8084 68.4885 93.3026 68.1521 93.7584C67.5847 93.3208 67.7184 92.7111 67.611 92.2129C66.6403 87.7101 62.8789 85.0829 58.2867 85.7433C57.0667 85.9175 55.875 86.1869 54.7726 86.7682C54.3997 86.9647 53.97 87.1389 53.6661 86.7094C53.283 86.1686 53.8626 86.0228 54.1443 85.7898C55.875 84.3517 55.719 82.316 55.7919 80.3978C55.8933 77.7039 54.7016 75.4899 52.9628 73.5171C52.6649 73.1788 52.0934 72.9661 52.2515 72.2227L52.2495 72.2207Z" fill="#26BDBD"/>
<path id="Vector_7" d="M92.6841 99.4306C89.5773 101.505 87.1657 103.968 83.6434 104.766C87.2852 101.464 87.0704 97.3382 86.6955 92.8313C85.9092 93.4755 85.3843 93.9393 84.8249 94.3586C84.1663 94.8508 83.4509 94.9035 82.8288 94.3343C82.2289 93.7874 82.0809 93.0744 82.5167 92.3553C83.2949 91.0732 84.1359 89.8274 84.904 88.5412C85.1512 88.128 85.4674 88.1624 85.8281 88.1787C91.5046 88.448 96.2387 86.0863 100.671 82.8737C101.015 82.6246 101.329 82.0493 101.8 82.3491C102.158 82.576 102.201 83.135 102.25 83.5969C102.462 85.6184 101.544 86.6838 99.5197 86.7547C97.6168 86.8195 96.4859 87.8161 96.259 89.7201C96.1617 90.5323 96.0178 90.7693 95.1869 90.2852C92.9982 89.0071 91.841 89.1935 89.9542 90.9476C88.4971 92.3027 88.0695 94.5206 88.9389 96.3295C89.6442 97.798 90.5865 99.0336 92.6841 99.4326V99.4306Z" fill="#26BDBD"/>
<path id="Vector_8" d="M40.8276 97.7368C43.1704 97.7368 45.3469 97.7368 47.5235 97.7368C50.0952 97.7348 52.4359 96.882 54.6368 95.6545C55.569 95.134 55.9744 94.9841 56.0088 96.3088C56.0696 98.6949 57.1478 99.9183 59.5999 100.5C60.1268 100.625 60.1937 100.842 60.0012 101.243C59.4013 102.483 59.1743 103.838 58.7589 105.132C58.5927 105.653 58.386 106.062 57.7193 105.914C51.6233 104.563 45.8576 102.501 41.1073 98.2452C41.0181 98.1642 40.9817 98.0224 40.8317 97.7388L40.8276 97.7368Z" fill="#26BDBD"/>
<path id="Vector_9" d="M65.9209 18.1853C67.9414 18.1853 69.3093 18.2055 70.6752 18.1792C71.8324 18.1569 72.104 18.7808 72.1567 19.8179C72.2175 21.0069 71.492 20.8914 70.7523 20.8712C67.5057 20.7881 64.9177 21.9751 63.0958 24.7379C62.7533 25.2565 62.6236 25.7851 62.4939 26.3665C62.3298 27.0977 61.8555 27.4319 61.2577 26.7291C59.7621 24.9689 57.7375 24.6286 55.6076 24.5293C55.3907 24.5192 55.1496 24.5111 54.9672 24.4138C54.6794 24.2579 53.7735 20.4296 53.9154 20.1116C54.0978 19.7024 54.5355 19.7227 54.8516 19.6579C58.7184 18.8618 62.5527 17.7721 65.9188 18.1853H65.9209Z" fill="#26BDBD"/>
<path id="Vector_10" d="M23.8023 71.3438C25.4013 72.3727 26.6922 73.4483 28.3196 73.9587C31.2561 74.8804 34.2433 75.247 37.3115 74.9776C37.656 74.9472 38.1343 74.7527 38.3228 75.1072C38.5863 75.6014 37.9803 75.7696 37.731 76.0228C36.4441 77.3434 35.1552 78.6296 35.672 80.7423C35.8058 81.2912 35.3356 81.271 34.9708 81.2953C32.4133 81.4634 29.9003 81.1089 27.4035 80.6248C27.0509 80.5559 26.7185 80.4162 26.4916 80.086C24.7203 77.5338 23.5692 74.7892 23.8043 71.3438H23.8023Z" fill="#26BDBD"/>
<path id="Vector_11" d="M49.5117 44.6959C49.5603 43.5251 49.1631 42.2997 48.389 41.1775C48.2248 40.9405 47.858 40.6772 48.1599 40.3552C48.4842 40.0108 48.7213 40.3977 48.9584 40.5719C52.9954 43.511 56.8763 43.2355 60.5465 39.6543C61.3997 38.8218 61.7584 39.4943 62.3157 39.9359C62.9946 40.4747 62.9642 40.9284 62.3217 41.4611C60.8079 42.719 59.7703 44.4164 58.3719 45.7836C57.841 46.3042 57.4843 46.9605 57.3992 47.6937C57.2796 48.7348 56.7344 48.9293 55.9076 48.508C54.3978 47.7362 52.7238 47.5094 51.133 47.0131C49.5461 46.5169 49.5299 46.5695 49.5137 44.6979L49.5117 44.6959Z" fill="#26BDBD"/>
<path id="Vector_12" d="M45.6369 53.5216C48.1255 52.4683 49.4347 50.7203 49.303 48.0283C49.2746 47.453 49.6394 47.2262 50.1987 47.3113C52.1706 47.6131 54.0513 48.2106 55.8894 48.9742C56.5318 49.2416 56.5115 49.5961 56.2521 50.145C55.2733 52.2252 54.7302 54.4047 54.8558 56.726C54.8741 57.0724 54.9734 57.4957 54.5903 57.7205C54.1972 57.9515 53.8749 57.6436 53.6155 57.4309C51.362 55.5998 48.8976 54.2346 45.9631 53.8619C45.8942 53.8538 45.8375 53.7383 45.6328 53.5236L45.6369 53.5216Z" fill="#26BDBD"/>
<path id="Vector_13" d="M82.4701 26.6079C80.482 24.6755 78.1758 23.3326 75.833 22.0504C75.2007 21.704 74.4975 21.2969 73.8146 21.2726C72.3757 21.224 72.6797 20.3408 72.7445 19.4942C72.8337 18.3518 73.5349 18.4733 74.384 18.5665C77.9407 18.9574 81.3109 19.9803 84.5798 21.3881C84.9426 21.544 85.4674 21.5481 85.5201 22.0484C85.583 22.65 84.975 22.5811 84.6447 22.7006C82.8146 23.3589 82.3343 24.7322 82.4681 26.6059L82.4701 26.6079Z" fill="#26BDBD"/>
<path id="Vector_14" d="M80.7838 32.8119C78.1897 32.3561 75.5856 31.951 73.0361 33.3912C73.7292 31.9976 74.3494 30.7013 73.94 29.1457C73.8083 28.6474 74.3129 28.7912 74.5824 28.9553C75.2775 29.3786 76.0152 29.7594 76.6354 30.2779C77.6365 31.1125 78.7775 31.6128 79.9894 32.0159C80.3075 32.1212 80.8871 32.028 80.7817 32.8119H80.7838Z" fill="#26BDBD"/>
</g>
</g>
</g>
<defs>
<clipPath id="clip0_369_253">
<rect width="150" height="160" fill="white"/>
</clipPath>
</defs>
</svg>
