<svg width="1440" height="92" viewBox="0 0 1440 92" fill="none" xmlns="http://www.w3.org/2000/svg">
<path d="M117.1 79.4817C93.3931 80.7305 70.4139 87.5339 46.9255 90.8707C31.7619 93.0186 0.842331 89.0525 -16.192 88.8826C-42.3099 88.6229 -27.4893 51.279 -25.5666 36.5233C-23.6335 21.7176 -22.1888 21.5778 -6.83819 19.8594C22.4496 16.5626 52.0181 16.8423 81.4099 14.9442C81.7217 20.0093 82.0335 25.0744 82.3349 30.1395C115.686 7.28159 160.772 1.13754 199.424 14.1849C201.534 19.1201 203.654 24.0653 205.764 29.0006C216.76 13.4456 239.562 11.8871 259.122 11.8871C310.526 11.8871 361.931 11.8672 413.335 11.8572C417.066 11.8572 421.577 12.2868 423.24 15.5136C424.903 18.7405 418.677 22.5768 417.7 19.1101C452.881 17.1321 488.051 15.164 523.232 13.1859C537.429 12.3867 554.027 12.5865 562.716 23.406C563.547 17.9613 564.368 12.5165 565.2 7.07179C578.586 4.64414 593.209 10.958 600.214 22.1872C613.309 9.90905 633.638 9.23969 651.93 9.31962C700.965 9.52942 750 9.7492 799.024 9.959C813.273 10.0189 827.533 10.0789 841.781 10.0989C850.106 1.42725 868.544 10.0889 866.559 21.7276C885.495 -5.25627 936.775 32.4872 961.905 10.6683C963.776 14.0051 965.636 17.3419 967.507 20.6786C982.92 4.87392 1009.67 10.968 1031.55 16.163C1053.43 21.358 1083.08 20.6786 1090.77 0.308342C1099.77 18.6606 1125.88 20.1192 1146.93 18.8904C1197.41 15.9432 1247.9 13.0061 1298.38 10.0589C1308.89 9.4495 1320.55 9.17976 1328.59 15.7234C1354.48 6.37247 1383.94 6.46239 1409.78 15.9632C1413.74 17.4218 1417.7 19.1101 1421.92 19.4898C1426.78 19.9294 1431.6 18.6206 1436.3 17.3119C1448.09 14.045 1471.46 0.538116 1471.45 19.28C1471.45 41.5185 1465.46 63.8369 1469.01 85.8156C1034.55 90.2213 599.372 91.2403 164.867 89.6319C137.491 89.532 110.698 82.6287 83.3326 82.5488C48.9209 82.4489 -1.89106 94.1076 10.9445 78.4927C11.0276 78.3928 10.695 78.6126 10.5807 78.6725" fill="black"/>
</svg>
