<?xml version="1.0" encoding="UTF-8"?>
<svg id="_Слой_2" data-name="Слой 2" xmlns="http://www.w3.org/2000/svg" viewBox="0 0 224.92 182.01">
  <defs>
    <style>
      .cls-1 {
        fill: #f4a06c;
      }
    </style>
  </defs>
  <g id="_Слой_1-2" data-name="Слой 1">
    <path class="cls-1" d="m177.91,119.14c.16.8.33,1.6.49,2.4.02.32.04.64.06.96-.05.16-.1.32-.14.48-.41.1-.83.2-1.44.36,1.18,1.91,1.9,3.95,4.45,3.98-.04.78-.07,1.56-.95,1.93-1.98.23-2.14.38-2.48,2.34-1.92,0-3.84.01-5.76.02-.11-.26-.22-.53-.42-1.02-.48.81-.82,1.4-1.19,1.97-.5.77-.27,1.52.4,1.86,2.35,1.18,2.98,3.09,2.68,5.53-.06.45.2.92.26,1.39.24,1.88.45,3.76.68,5.64-.35-.07-.69-.14-1.04-.21.1-.93-.22-1.56-1.22-1.69-2.43-.33-4.85-.65-7.28-.99-.54-.08-1.15-.11-1.58-.4-1.04-.7-2.1-.69-3.19-.34-1.96.62-4.04,1.05-5.83,2.01-3.07,1.64-6.05,1.1-8.91-.07-2.92-1.2-5.67-2.84-8.43-4.38-.56-.31-1.26-1.04-1.26-1.58-.03-2.74-1.58-4.78-3.1-6.74-1.01-1.32-2.26-2.73-4.34-2.32h.02c.14-.97.21-2.07-.78-2.49-1.11-.47-2.36-.61-3.57-.78-.22-.03-.65.47-.73.79-.13.51-.05,1.08-.05,1.62-.12.12-.24.24-.36.36-1.76-.23-3.03.32-3.92,1.99-.54,1.01-1.51,1.81-2.33,2.65-.91.93-1.64,1.87-1.47,3.31.06.53-.2,1.17-.49,1.65-.79,1.33-.95,4.39-.1,5.43,1.34,1.62,3.15,2.53,5.13,3.13-.14.98-.27,1.96-.45,2.93,0,.04-.57-.03-.88-.04-.04-1.24-.26-2.42-1.65-2.83-1.39-.4-2.42.49-2.95,1.51-.86,1.65-1.47,3.45-2.02,5.24-.25.82.45,1.26,1.27,1.35,0,.48-.02.96-.02,1.44-1.14.17-1.5.72-.92,1.8,1.36,2.56,2.82,5.04,5.05,6.99.46.4.55,1.21.82,1.83l.02.02c-.87-.18-1.54.02-2.01.86-.26.47-.65.93-1.09,1.23-3.78,2.59-7.58,5.14-11.51,7.8-1.01-2.31-3.36-2.97-5.21-4.25-1.14-.79-2.44-1.16-3.85-.89-.33.04-.66.07-.99.11-.75-.39-1.51-.79-2.26-1.18-.32-.67-.48-1.52-.99-1.96-.69-.6-1.61-.72-1.91.58-.96-.03-1.92-.06-2.89-.09-.3-.1-.61-.2-.91-.31-.47-.36-.94-.72-1.51-1.16.3-.72.63-1.41.86-2.13.28-.87.08-1.54-.99-1.64,0-.76-.01-1.51-.02-2.27.74-1.25.51-2.75-.56-3.28-.6-.3-1.05-.06-1.17.64-.32,0-.65,0-.97,0,.02-1.34-.61-1.42-1.67-.94-3.92,1.79-8.1,2.54-12.35,2.98-1.28.13-2.1.59-2.3,1.92-2.08.14-4.16.28-6.24.43-.01-.7.05-1.42-.06-2.11-.15-1.02-.64-1.77-1.86-1.65.02-.8.04-1.6.05-2.4.93-.11,1.58-.6,1.23-1.56-.3-.82-.94-1.5-2.02-1.16-.3.09-.57.26-.86.39-.3.07-.61.15-.91.22-.45-.09-.9-.18-1.34-.27-.27-.3-.54-.6-.81-.9-.21.28-.42.57-.63.85-1.28,0-2.56,0-3.84,0-.06-.77-.39-1.36-1.23-1.34-.84.02-1.13.65-1.17,1.41l-1.43.48c-.06-.81-.64-1.25-1.26-.91-1.44.78-3.35,1.13-3.55,3.28-1.77.02-3.53.05-5.3.07-1.8-.65-5.41-.64-7.16.02-.49-.03-.98-.07-1.46-.1-.41-1.56-.68-1.7-1.67-.87-.47.39-.98.75-1.41,1.19-.06.06.23.47.36.72.14.29.28.58.42.87.05.44.09.89.14,1.33-1.06.69-.88,1.68-.43,2.52,1.61,2.99,3.32,5.91,4.97,8.87.39.71.71,1.46,1.06,2.19-1.17.55-2.03.95-2.88,1.37-1.02.49-1.64,1.24-1.51,2.45-.7.34-1.41.69-2.11,1.03-.57.15-1.17.24-1.72.45-.7.26-1.36.62-2.04.93-.2-.3-.39-.59-.59-.89.18-.23.56-.56.5-.69-1.78-3.78-3.82-7.38-6.99-10.22-1-.9-2.34-1.76-2.74-2.91-.54-1.55-1.37-1.72-2.65-1.6-.35-.79-.7-1.58-1.05-2.37.86-.08,1.33-.57,1.06-1.4-.36-1.09-.3-2.63-2.13-2.5-.05-.32-.09-.64-.14-.96.46-.15.92-.29,1.46-.46-.39-1.21-1.43-2.06-.71-3.26.09-.14-.04-.47-.14-.66-1.01-1.85-1.25-3.85-1.14-5.92.07-1.25-.18-2.23-1.74-2.18,0-1.44,0-2.87.01-4.31.67-.08,1.54.22,1.69-.84.1-.74.09-1.48-.94-1.57-.15-.48-.29-.95-.44-1.43.04-.32.08-.64.13-.96.85,0,1.57-.17,1.72-1.17.12-.75-.21-1.19-.98-1.26.02-.47.04-.94.05-1.41.77-.05,1.3-.37,1.42-1.19.1-.72-.19-1.17-.96-1.22,0-.16,0-.32.01-.48.36-.29.93-.5,1.06-.87.68-1.89,1.31-3.8,1.8-5.75.12-.46-.37-1.08-.59-1.62.94-1.91,1.87-3.83,2.81-5.74,1.76-.24,1.97-1.68,2.1-2.98.22-2.12.62-4.13,1.86-5.92.26-.38.47-.86.53-1.32.37-2.9.68-5.82,1.02-8.72.06-.55.1-1.12.28-1.63.36-.99.9-1.6,2.16-1.2,1.42.45,2.9.78,4.37.95.72.08,1.66-.12,2.21-.56.71-.56,1.03-1.47-.19-2.04-.24-.61-.48-1.23-.72-1.84.11-1.06.11-2.18-.82-2.82-1.64-1.12-3.43-1.9-5.59-1.11-.92-2.14-1.82-4.13-2.63-6.17-.49-1.24-1.29-1.72-2.57-1.45-.18-.46-.36-.93-.54-1.39.9-.61.82-1.16-.11-1.66l.07-.11s.12.05.12.05c.13-.76.3-1.52.35-2.29.02-.32-.24-.65-.37-.97,1.61-1.16,3.61-1.22,5.38-1.92.08.8.48,1.22,1.28.87,1.68-.72,3.34-1.48,4.97-2.3.26-.13.31-.66.45-1.01.47-.16.94-.33,1.41-.49.56.85,1.4.73,2.14.48,3.74-1.25,7.48-2.5,11.18-3.87,1.54-.57,2.95-1.49,4.47-2.14,1.87-.8,3.82-1.43,5.68-2.26.45-.2.68-.91,1.01-1.38.32-.13.65-.26.97-.39,1.91.95,2.29.81,2.87-1.04.81-.3,1.62-.6,2.43-.89.12.98.58,1.22,1.48.77.85-.42,1.71-.84,2.61-1.12,1.58-.5,3.3-.66,4.76-1.38,3.23-1.6,6.67-2.49,10.1-3.48,1.1-.32,2.12-.87,2.97-1.23,1.12.08,2.13.29,3.11.19,1.89-.19,3.76-.53,5.63-.86,1.17-.21,2.37-.36,3.46-.81,2.47-1.02,4.88-2.19,7.3-3.31.97-.45,1.87-.98,1.76-2.27.96-.46,1.92-.91,2.88-1.37.88.98,1.75.57,2.74.1,2.18-1.03,4.49-1.83,6.63-2.94,1.21-.63,3.02-.74,3.17-2.68.32-.04.64-.08.96-.12.12,1.04.88,1.13,1.57.82,1.5-.67,3.05-1.34,4.39-2.27,1.65-1.15,3.26-2.43,4.25-4.28.12-.23.48-.45.74-.48,1.62-.16,1.55-1.3,1.52-2.45h0c1.62.34,2.44-.79,3.61-1.61,2.65-1.86,5.23-3.71,7.38-6.16.75-.85,1.15-1.67,1.03-2.77.41-.34.82-.68,1.23-1.02,2.45.02,2.74-.25,3.07-2.87.28-.22.55-.43.83-.65.46.85,1.18.83,1.8.33,1.05-.84,2.2-1.65,2.94-2.73.7-1.03,1.54-1.7,2.49-2.43,1.63-1.24,3.33-2.61,2.98-5.08.64-.64,1.29-1.27,1.93-1.91.31-.04.63-.09.94-.13.33-.1.66-.21.99-.31.31-.06.62-.11.93-.17.31.01.62.03.92.04.18,1.3.39,2.6.53,3.9.1.97.74,1.06,1.49,1.05.07.32.14.65.21.97-.03.49-.06.98-.09,1.47,0,0-.22-.07-.22-.07-.59.11-1.18.21-1.78.32,0,1-.1,1.8.02,2.57.37,2.47-.08,3.01-2.5,3.41-1.3.21-2.58.7-3.79,1.24-.97.43-1.06,1.29-.47,2.18.05.11.07.23.04.36-.79.08-1.29.51-.85,1.26.51.87,1.13,1.75,1.9,2.39,1.93,1.62,3.89,3.22,5.97,4.62,1.84,1.24,3.41,3.24,6.06,2.71,2.02,1.23,4.39,2.19,3.8,5.29-1.08.15-1.44.71-.72,1.58.43.53,1.04.95,1.63,1.31,1.93,1.14,4.07,1.09,6.21.97.46.14.92.28,1.38.43.36.45.63,1.08,1.1,1.33,1.15.63,2.38,1.08,3.38,1.52.73,1.02-.46,2.47,1.13,2.99.03.16.07.31.1.47-.27.94-.54,1.89-.81,2.83-1.16,1.11-1.14,2.12.31,2.87,1.83.95,3.79,1.65,5.7,2.45,2.65,1.11,5.76,1.1,7.98,3.24.67.65,1.51,1.23,1.9,2.03,1.35,2.77,3.6,5.06,4.37,8.13.08.3.3.56.44.85.91,1.84,1.82,3.67,2.73,5.52-1.48,1.42-2.31,2.91-1.92,4.83-.12.13-.25.27-.37.4-.54,0-1.11-.11-1.6.05-1.15.37-1.16,1.33-.07,2.29-.02.32-.04.65-.06.97-1.06,1.09-1.15,1.55-.23,2.72,1.2,1.54,2.6,2.94,3.71,4.53.97,1.39,2.1,2.11,3.79,1.86.5.5,1,.99,1.5,1.49.05.73.1,1.47.15,2.13,1.36.33,2.31.38,2.25-1.19l3.84.09c.16,1.12.75,1.96,1.88,2.16,1.38.25,2.79.33,4.18.49.56.46,1.12.92,1.68,1.38-.62,1.64,1.04,2.53,1.37,3.81-3.34,3.17-5.15,5.66-6.87,10.47-.79,2.21-1.9,4.31-2.77,6.25-4.05-.55-7.72-1.05-11.89-1.62-.17-.18-.6-.92-1.26-1.29-2.59-1.44-4.82-3.16-6.29-5.83-.47-.85-1.32-.95-1.63.33-2.04.27-4.08.54-6.12.81-1.72-1.27-3.74-.58-4.44,1.53-.64.18-1.28.35-1.92.53-.28-1.3-1.31-1.08-2.03-.76-1.5.68-2.79,1.59-3.01,3.54-.12,1.1.23,1.43,1.14,1.57,0,.32,0,.64,0,.96-.44.37-1.16.68-1.26,1.12-.19.86.53,1.21,1.33,1.27Z"/>
  </g>
</svg>