<?xml version="1.0" encoding="UTF-8"?>
<svg id="_Слой_2" data-name="Слой 2" xmlns="http://www.w3.org/2000/svg" viewBox="0 0 273.62 211.11">
  <defs>
    <style>
      .cls-1 {
        fill: #f7b489;
      }
    </style>
  </defs>
  <g id="_Слой_1-2" data-name="Слой 1">
    <path class="cls-1" d="m47.03,74.36c.32.15.64.3.96.45.34.42.67.84,1.01,1.26.14-.39.29-.79.43-1.18.8.13,1.6.25,2.4.38.33.46.66.93.99,1.39.33-.33.66-.66.99-.99.33-.06.66-.12.99-.18.93.06,1.86.13,2.79.19,1.28.2,2.56.4,3.85.61.77,1.6.77,1.59,2.15.74.25-.16.56-.21.85-.31.6.02,1.2.04,1.8.07.28.42.56.85.83,1.27.39-.33.77-.65,1.16-.98,1.26.02,2.52.05,3.78.07.48.03.96.06,1.44.08.8.18,1.6.36,2.4.54.2.43.4.86.6,1.29.3-.35.59-.69.89-1.04,1.1.08,2.21.15,3.31.23.27.4.53.81.8,1.21.23-.32.46-.63.68-.95.94.07,1.89.14,2.83.21.42,1.89,1.47,2.66,3.36,2.27,2.32-.48,4.54,1.19,6.86.23.05-.02.14.06.21.1,2.17,1.28,4.71.16,7.02,1.07.72.28,1.97-.13,2.93.27,1.21.51,1.59-.15,1.74-1.17.63.02,1.26.03,1.88.05.01,1.18.9,1.63,1.8,1.76.79.11,1.49-.33,1.56-1.3.16-.16.31-.31.47-.47.48-.01.95-.03,1.43-.04.08.44.17.88.28,1.46,1.76-.59,3.36-1.19,3.99-2.93.75-2.08,1.17-4.29,2.04-6.32.84-1.95,1.82-3.95,3.19-5.54,1.32-1.52,1.09-3.05.97-4.69-.02-.22-.59-.4-.9-.6-.12-1.12-.23-2.25-.35-3.37.27-.19.55-.39.82-.58.88,1.06,1.48.31,2.13-.32.54-.53,1.06-1.12,1.69-1.53,2.4-1.58,5.05-2.08,7.92-1.95,1.38.06,2.88-.21,4.15-.74,1.66-.69,3.24-1.66,4.69-2.73,2.78-2.06,5.43-4.29,8.17-6.41.6-.46,1.37-.71,2.44-1.25-.44,1.69-.23,2.74,1.49,2.54,0,1.6,0,3.2,0,4.8-.44.1-.88.19-1.33.29.01,1.62.81,2.5,2.14,2.94.97.31,1.73.03,2.14-.96,1.4-.02,2.81-.05,4.21-.07.12,1.29,1.04,1.28,1.93,1.07,2.37-.57,4.77-.91,6.96-2.22,1.41-.84,2.22-1.83,2.18-3.36-.1-4.36-.27-8.71-.49-13.07-.08-1.54-.69-2.02-2.38-2.37-.07-.94-.14-1.88-.21-2.82.73-.06,1.22-.37,1.14-1.19-.08-.87-.64-1.22-1.45-1.27-.05-.62-.1-1.24-.15-1.86.36-.31.72-.63,1.08-.94-.46-.34-.92-.69-1.38-1.03-.14-.16-.28-.33-.42-.49-.02-.32-.05-.63-.07-.95.05-.16.1-.32.16-.48.66,0,1.34-.1,1.29-.95-.05-.9.57-2.14-1-2.44.28-.49.56-.99.83-1.48,1.08.18,2.01.03,2.82-.83,1.07-1.14,2.29-2.14,3.36-3.29,1.33-1.43,2.64-2.9,3.83-4.44,1.37-1.78.82-3.8-.23-5.34-.87-1.27-.92-2.46-.94-3.79,1.44,0,2.88,0,4.32.01.29.31.52.76.87.92,1.55.72,3.29,1.15,4.67,2.1,1.17.81,2.08.93,3.22.27.61.32,1.21.64,1.82.96-.17,1.53.37,2.43,1.93,3.05,3.72,1.49,7.36,3.21,11.01,4.87,1.14.52,1.43,0,1.44-1.01.64-.06,1.28-.12,1.92-.18.31.15.62.31.94.46.17,1.04.83,1.47,1.81,1.27.91-.19,1.2-.88,1.06-1.77.01-.13.03-.26.06-.39.63-.02,1.26-.03,1.89-.05,1.12,0,2.24,0,3.36,0,.17,0,.33.02.5.03,0,.13,0,.26.02.39.31,1.06.65,2.1.94,3.17.68,2.52,1.26,5.07,2.02,7.57.53,1.74,1.99,2.5,3.7,2.31.88-.1.98-.65.99-1.33.48,0,.96.01,1.44.02-.01.87.19,1.63,1.2,1.75,2.76.3,5.49.42,7.98-1.23,1.43-.94,1.56-.78,2.55.7,1.8,2.69,3.64,5.37,5.58,7.96.54.71,1.46,1.21,2.3,1.6.66.31.99-.24,1.05-.88.95.33,1.91.65,2.86.98.33.49.55,1.13,1.01,1.46,1.94,1.39,4.17,2.16,6.44,2.9,2.08.68,4.07,1.62,6.1,2.44-.06.3-.11.6-.17.9-.14.32-.28.64-.42.96-.81.05-1.34.43-1.41,1.28-.07.93.35,1.49,1.32,1.6.05.32.1.64.14.96-.17.96-.33,1.92-.5,2.87-.82.8-.66,1.58.16,2.21.75.57,1.6,1,2.34,1.45,0,.79-.15,1.6.03,2.32.77,3.07,1.29,6.18,1.75,9.3.14.93.51,1.47,1.47,1.53.1.12.15.25.14.41-.71.32-1.17.76-1.02,1.65.55,3.18,1.09,6.37,1.6,9.55.36,2.21.66,4.42-1.88,5.71-.2.1-.21.57-.31.86-.48.15-.96.3-1.44.45-.02-.64-.01-1.32-.92-1.33-.97-.02-1.43.51-1.46,1.45-.49.13-.97.26-1.46.4l-.93-.37c-.21-.28-.5-.84-.63-.81-1.45.37-2.96.66-4.29,1.31-2.42,1.2-4.69,2.71-7.1,3.93-.95.48-2.11.66-3.19.75-2.12.18-4.33-.35-6.32.87-.24.15-.67.16-.93.04-1.49-.63-2.53-.13-3.57,1.01-.61.66-1.6.98-2.43,1.42-1.12.6-2.28,1.12-3.37,1.77-1.97,1.18-3.86,2.48-5.85,3.62-2.67,1.54-5.25,3.18-7.53,5.25-.73.66-1.28,1.51-1.92,2.27-.32-.22-.57-.31-.71-.49-1.6-2.1-3.91-2.17-6.11-1.74-2.06.4-4.49.79-4.51,3.8,0,.07-.1.13-.13.2-.85,1.84-.19,3.68,1.65,4.53,1.44.66,2.88,1.34,4.69.53.34,1.52.61,2.82.91,4.11.69,2.9.07,4.01-2.78,4.97-2.09.7-4.2,1.36-6.26,2.14-1.99.75-3.9,1.67-3.6,4.29-2.34,1.46-4.6,2.79-6.77,4.25-.7.47-1.26,1.2-1.77,1.89-.63.84-.32,1.48.61,1.87-.03.14-.05.28-.06.43-.77.33-1.13.86-.87,1.71.33,1.04.61,2.11,1.03,3.11.4.94.31,1.74-.48,2.35-.69.53-1.42,1.07-2.21,1.38-2.88,1.13-5.8,2.16-8.69,3.26-.88.34-1.73.78-2.57,1.22-1.12.59-2.17,1.31-3.32,1.82-2.18.97-4.4,1.84-6.61,2.73-.94.38-1.39,1.02-1.29,2.04-.15.05-.3.08-.46.09-1.04-.7-1.13-.66-1.41.57-.66.29-1.31.57-1.97.86-.64-1.05-1.18-1.2-1.67-.37-.21.36-.18.86-.26,1.3-.12.05-.25.07-.38.05-1.2-.74-2.39-.66-3.61,0-.69.38-1.45.63-2.18.95-4.77,2.12-9.72,3.81-14.23,6.54-1.57.95-3.2,2.19-5.35,2.16-1.14-.02-1.67,1.06-1.61,2.25l-1.44.55c-.26-1.36-1.15-1.06-1.99-.7-2.96,1.29-5.92,2.61-8.86,3.94-2.31,1.05-4.64,2.08-6.9,3.23-2.01,1.01-3.98,2.12-3.92,4.86,0,.44-.35.87-.5,1.32-.45,1.33-.21,1.67,1.48,2.18,0,1.76,0,3.52,0,5.28-.98.09-1.42.64-1.36,1.6.17,2.67,3.34,4.34,5.8,3.06,3.08.5,3.23.64,3.32,3.01-1.65.78-2.16,2.36-1.29,3.98-.07.75-.15,1.51-.22,2.26-.46-.07-.94-.09-1.38-.23-.83-.26-.93.26-1.03.84-.77-.02-1.55-.05-2.32-.07-1.62-.72-2.61-.25-3.21,1.57-.41,1.23-.76,2.47-1.14,3.71-.8-.19-1.6-.38-2.4-.58.02-.71-.02-1.38-.98-1.41-.02-.79-.04-1.58-.07-2.37.32-.19.88-.33.91-.56.23-1.53-.52-2.85-1.59-3.68-.81-.62-2.13-.6-3.23-.8-.06-.01-.23.52-.35.8-1.11-.02-2.22-.04-3.33-.06-.14-1.03-.72-1.25-1.46-.61-.44.38-.67,1.01-.98,1.49-1.9.11-3.53-.32-5.27-1.03.26-.55.42-.89.6-1.23,1.07-2,1.23-4.18.61-6.26-1.51-5.02-3.22-9.99-5.6-14.69-1.36-2.68-3.51-4.46-6.29-5.51-.97-.37-1.95-.7-2.95-.97-2.36-.64-3.72-2.16-4.59-4.43-1.16-3.03-2.54-5.99-3.92-8.93-.22-.46-.92-.7-1.4-1.04,0-.32,0-.64,0-.96,1.22.17,2.15-.27,2.95-1.2.67-.79,1.46-1.47,2.19-2.21,1.75-1.79,2.4-3.84,1.55-6.29-.23-.66-.22-1.4-.41-2.09-.76-2.75-1.43-5.53-2.38-8.21-.58-1.63-1.27-1.74-2.91-1.06-2.71-.05-5.42-.11-8.13-.16.04-.85-.26-1.33-1.22-1.33-.98,0-1.22.53-1.19,1.36-3.18.09-6.37.17-9.55.26-.06-.71-.37-1.16-1.15-1.1-.82.06-1.22.54-1.29,1.34-3.2.14-6.4.28-9.6.43-.37-.42-.67-1.1-1.12-1.2-.81-.19-1.19.47-1.28,1.24-.59-.04-1.18-.08-1.84-.12v-18.5c1.02.05,1.58-.38,1.27-1.43-.58-1.97-1.23-3.91-1.87-5.86-.37-1.13-.79-2.24-1.19-3.37-.26-.72-.33-1.39.44-1.89,1.38-.88,1.53-2.46,2.35-3.89-.64-.15-1.07-.25-1.5-.36.09-.34.18-.68.27-1.01,1.51-.04,2.05-.92,2.08-2.32.05-1.85-.14-2.16-2.02-2.91-.03-.3-.06-.6-.09-.9.72-.09,1.36-.39.98-1.2-.74-1.57-1.45-3.2-2.5-4.56-2.63-3.42-5.43-6.71-8.17-10.04-.47-.58-.92-.53-1.31.11-1.82-1.36-1.89-1.89-.44-3.58.81-.23,1.93-.21,2.38-.75,1.03-1.23,2.4-1.66,3.74-2.24h-.05c.81.27,1.79,1.4,2.22-.41.47.03.94.06,1.4.09.07.78.39,1.45,1.26,1.29.29-.05.44-.81.66-1.25.65.11,1.3.23,1.95.34.67,1.87,1.04,1.94,2.43.48l.99-.18.87.23c.9,1.89,1.45,1.95,2.95.36.62.04,1.24.09,1.85.13.06.79.39,1.51,1.24,1.35.45-.08.77-.79,1.16-1.21.48-.03.96-.07,1.44-.1Z"/>
    <path class="cls-1" d="m31.73,102.65c.43.1.87.21,1.5.36-.82,1.43-.97,3.01-2.35,3.89-.77.49-.7,1.16-.44,1.89.4,1.12.82,2.24,1.19,3.37.64,1.95,1.29,3.89,1.87,5.86.31,1.04-.25,1.48-1.27,1.43-.34-.87-.71-1.73-1-2.61-.84-2.57-1.63-5.16-2.47-7.73-.12-.37-.3-.78-.59-1.01-.34-.28-.92-.62-1.22-.5-.43.16-.97.71-.99,1.13-.06,1.01.07,2.06.26,3.06.38,2,.21,2.29-1.67,3-1.55.59-3.09,1.24-4.57,1.98-.37.18-.5.83-.98,1.7,1.8-.19,3.11-.46,4.42-.44,1.28.01,2.67-.47,3.96.5-1.62,2.7-4.81,3.33-7.33,5.72,1.65.33,2.72.54,3.85.77-.16.43-.23.65-.32.86-1.23,2.79-.77,4.27,1.9,5.69,1.18.62,2.45,1.06,3.89,1.68-.64,1.45-1.15,2.78-1.81,4.02-.22.41-.82.85-1.26.87-1.81.1-3.63.04-5.2.04-1.07-3.42-2.01-6.53-3.03-9.61-.26-.77-.44-1.76-1.87-1.87-1.63,2.06-3.37,4.22-5.08,6.4-1.18,1.51-1.53,3.12-.5,4.6-2.67.7-5.32,1.39-8.09,2.11-1.19-1.72-1.78-3.89-2.05-6.09-.78-6.27-.43-12.55-.22-18.85.16-4.83.61-9.51,2.34-14.03.41-.68.77-1.39,1.23-2.02,1.16-1.58,2.36-3.12,3.55-4.68.58,1.82,1.77,2.58,3.73,2.42,1.88-.15,3.78-.05,5.68-.06.49.11.97.23,1.46.34.81.35,1.62.7,2.43,1.05.77.98,1.55,1.95,2.32,2.93,0,0-.02,0-.02,0,.65,1.13,1.29,2.27,1.94,3.4.33.29.66.59.99.88,1.02.25,2.07.77,3.07.68,1.71-.15,2.29-1.65,2.76-3.09Z"/>
  </g>
</svg>