<?xml version="1.0" encoding="UTF-8"?>
<svg id="_Слой_2" data-name="Слой 2" xmlns="http://www.w3.org/2000/svg" viewBox="0 0 206.49 113.68">
  <defs>
    <style>
      .cls-1 {
        fill: #fac7a6;
      }

      .cls-2 {
        fill: #fac8a8;
      }

      .cls-3 {
        fill: #facaab;
      }
    </style>
  </defs>
  <g id="_Слой_1-2" data-name="Слой 1">
    <path class="cls-1" d="m201.63,41.2c-.64.46-1.34.85-1.9,1.38-4.56,4.35-9.01,8.82-13.67,13.07-4.17,3.81-8.54,7.39-12.85,11.04-2.91,2.47-5.79,4.99-8.85,7.27-1.42,1.07-3.16,1.83-4.86,2.38-5.87,1.89-11.59,4.12-16.82,7.38-4.92,3.06-10.19,4.8-15.97,5.06-4.43.2-8.59,1.55-12.71,3.06-4.64,1.7-9.28,3.39-13.91,5.11-7.92,2.94-15.82,5.92-23.75,8.85-4.19,1.55-8.4,3.02-12.59,4.55-2.98,1.09-5.95,2.21-8.92,3.31-.16-2.06-.46-4.12-.44-6.18.07-6.3.21-12.6.43-18.9.08-2.39-.59-4.44-2.27-6.07-.98-.95-1.1-1.99-1.17-3.23-.32-6.27-.58-12.57-2.34-18.66-.55-1.91-1.16-3.83-2.03-5.6-2.51-5.08-5.16-10.09-7.79-15.12-.36-.68-.89-1.27-1.33-1.88-2.27.48-3.67,1.85-5.04,3.49.3.7.61,1.4.91,2.1l-.13.13c-2.08-.04-2.97-1.81-4.05-3.07-2.13-2.46-4.06-5.11-5.95-7.77-1.65-2.32-2.64-4.9-2.4-7.85.21-2.7.28-5.4.52-8.1.05-.53.47-1.32.9-1.46,6.08-2.08,9.21-7.08,12.24-12.18.32-.55.63-1.11.99-1.74,2.29-.19,4.58-.46,6.87-.57,4.86-.23,9.72-.38,14.59-.56,4.06-.15,8.13-.25,12.19-.46,1.39-.07,2.34.35,2.72,1.72.92,3.29,1.87,6.58,2.7,9.9.3,1.21.01,2.35-1.05,3.23-.86.71-1.55,1.62-2.4,2.34-1.89,1.62-2.27,3.67-1.48,5.86,1.38,3.81,2.9,7.57,4.47,11.31.61,1.45,1.84,2.39,3.31,2.97,1.85.73,3.71,1.45,5.57,2.17,1.95.75,3.46,1.9,4.23,3.95,1.76,4.69,3.59,9.36,5.39,14.04.56,1.47.31,2.82-.61,4.07-.23.32-.47.65-.65,1.01-1.02,2.03-.44,3.71,1.68,4.39,1.96.63,3.97,1.22,6.01,1.5,1.46.2,2.54-.73,3.01-2.19,2.83.57,4.07,1.9,4.25,4.56.18,2.72,1.78,4.22,4.6,4.51,2.69.28,4.99-.64,7.21-1.99.88-.53,1.85-.93,2.68-1.52.56-.4,1.08-.96,1.41-1.56,1.75-3.18,2.42-6.71,3.1-10.22.09-.49-.3-1.34-.72-1.61-1.19-.74-2.47-1.44-3.81-1.83-3.49-1.04-3.64-2.23-3.48-4.52.16-2.37.33-4.75.44-7.13.05-1.14.75-1.67,1.66-2.11,4.25-2.02,8.47-4.11,12.74-6.08,4.55-2.1,9.13-4.15,13.73-6.14,7.46-3.23,14.95-6.38,22.41-9.59,6.37-2.74,12.72-5.52,19.07-8.29,3.73-1.62,7.45-3.24,11.19-4.85.43-.18.93-.23,1.39-.34.23.04.47.07.7.14,4.81,1.42,5.12,1.77,5.02,6.75-.05,2.37-.28,4.75-.48,7.11-.05.54-.29,1.07-.5,1.57-.28.66-.62,1.29-.94,1.93-2.19,4.45-2.12,4.92,1.28,8.54,1.48,1.58,1.46,1.68,0,3.31-1.27,1.41-2.5,2.85-3.74,4.27Z"/>
    <path class="cls-2" d="m26.33,72.81c-.75-.49-1.41-.79-1.91-1.27-2.41-2.32-4.71-4.75-7.17-7.01-2.23-2.04-4.6-3.93-6.92-5.87-.55-.46-1.09-.97-1.72-1.29C2.88,54.46,1.48,48.91.15,43.36c-.32-1.32-.14-2.67.61-3.93,3.85-6.42,7.69-12.86,12.46-18.67.75-.92,1-1.81.58-2.86-1.01-2.5-1.98-5.03-3.14-7.46-.85-1.8-1.93-3.49-2.96-5.19-.61-1.01-.4-1.76.44-2.51,1.74-1.56,6.59-1.93,8.35-.38,1.8,1.58,3.51,3.28,5.04,5.12,1.75,2.1,1.58,2.65-.83,4.52-.33-.52-.65-1.02-.98-1.52-.3-.44-.61-.87-.94-1.34-1.18.37-1.32,1.26-1.36,2.12-.19,4.14-.46,8.28-.47,12.42,0,5.95,1.81,11.48,4.8,16.55,1.48,2.52,3.55,4.69,5.27,7.09.68.95,1.37,2.02,1.62,3.14,1.14,4.96,2.12,9.95,3.15,14.93.32,1.55.5,3.14.92,4.67.38,1.4,1.46,1.8,3.03,1.35,1.48-.43,1.84-1.02,1.39-2.65-1.02-3.68-2.25-7.31-3.1-11.03-.54-2.38-.6-4.88-.77-7.34-.1-1.35.4-2.51,1.74-3.21,1.57.35,2.17,1.63,2.36,2.96.33,2.39,1.82,3.81,3.61,5.1.52.37.95.89,1.51,1.17,1.34.68,1.58,1.93,1.74,3.2.09.71.08,1.44.02,2.15-.26,3.13.32,5.96,2.32,8.54.71.91.94,2.36,1.01,3.58.15,2.63.05,5.27.04,7.91-.01,1.78.23,3.37,2.36,3.87.81.19,1.08.86,1.04,1.67-.1,2.21.34,4.43-.79,6.57-.44.84-.22,2.03-.33,3.38-.79-.88-1.43-1.61-2.08-2.32-.65-.7-1.3-1.4-1.98-2.09-1.22-1.24-2.46-2.48-3.69-3.71-2.65-2.65-5.33-5.23-6.23-9.13-.33-1.43-1.19-2.77-1.93-4.09-3.76-6.76-7.55-13.51-11.36-20.24-.71-1.24-1.53-2.44-2.42-3.56-1.4-1.76-3.55-2.27-5.36-1.4-1.28.61-1.58,1.25-.81,2.46,1.23,1.95,2.56,3.85,3.97,5.68,2.29,2.96,4.65,5.87,7.07,8.73,1.22,1.44,1.77,2.97,1.26,5.22Z"/>
    <path class="cls-3" d="m29.27,2.09c-1.2,1.26-2.41,2.53-3.65,3.83q-1.12-1.46-1.31-4.27h4.62c.11.15.22.3.33.44Z"/>
  </g>
</svg>