<?xml version="1.0" encoding="UTF-8"?>
<svg id="_Слой_2" data-name="Слой 2" xmlns="http://www.w3.org/2000/svg" viewBox="0 0 196.63 325.1">
  <defs>
    <style>
      .cls-1 {
        fill: #fac7a6;
      }
    </style>
  </defs>
  <g id="_Слой_1-2" data-name="Слой 1">
    <path class="cls-1" d="m37.9,138.97c0-1.11.01-2.23.02-3.34,3.72-1.88,5.08-4.04,4.81-7.66-.11-1.52-.43-2.08-1.83-1.88-2.9.41-4.1-1.02-4.58-3.56-.09-.47-.29-.91-.44-1.36-.45-1.39-1.37-2.31-2.78-2.74-2.28-.7-4.55-1.46-6.86-2.07-2.62-.7-3.33-.2-4.16,2.38-.76,2.35-1.64,4.65-2.46,6.97-.39,1.09-1.16,1.49-2.25,1.2-2.92-.76-5.83-1.6-8.76-2.32-3.19-.78-5.13-4.72-4.08-7.76.72-2.09,1.08-4.31,1.54-6.48.4-1.92.05-3.66-1.55-4.97-1.47-1.21-2.94-2.4-4.52-3.7.28-.55.5-1.16.87-1.64,1.3-1.71,2.7-3.35,3.98-5.06,2.28-3.03,4.5-6.1,6.74-9.16.5-.51,1.2-.93,1.48-1.55.87-1.92,2.33-3.09,4.15-4.06,1.65-.88,1.71-1,2.71.7.24.41.44.86.75,1.22.92,1.07,1.85.89,2.29-.42.18-.53.36-1.07.4-1.62.11-1.44.71-2.2,2.27-2.1.61.04,1.26-.2,1.85-.42,1.58-.57,1.82-1.07,1.4-2.68-.17-.67-.31-1.35-.53-2.32.9-.08,1.57-.21,2.25-.18,2.87.11,5.73.28,8.59.4,1.48.06,2.69-.53,3.41-1.83.65-1.17,1.22-2.41,1.64-3.68.47-1.43-.05-2.08-1.56-2.16-1.14-.06-2.29-.01-3.66-.01,2.12-2.93,2.93-3.09,5.44-1.29.78.56,1.56,1.11,2.3,1.71.8.65,1.64.68,2.43.11,3.05-2.18,6.16-4.28,7.48-8.1.8-2.33,1.85-4.56,2.75-6.86,1.55-3.95,1.37-3.31,5.5-3.32.39,0,.79.14,1.18.16,2.07.1,4.14.27,6.2.25,1.31-.01,1.86-.81,1.55-2.09-.17-.68-.54-1.33-.93-1.92-1.16-1.72-2.36-3.41-3.56-5.09-1.07-1.51-1.49-3.19-1.18-4.99.25-1.41.63-2.79,1.03-4.17.13-.43.43-.91.79-1.15,1.94-1.3,5.43-.72,6.92,1.13.65.81,1.16,1.72,1.82,2.51,1,1.19,2.07,2.32,3.06,3.43,1.87-1.1,2.17-1.59,1.52-3.67-1.28-4.11-2.74-8.15-4.08-12.24-.53-1.63-1.4-2.99-2.61-4.22-3.18-3.25-6.28-6.59-9.42-9.88-.62-.65-1.45-1.42-.87-2.26.8-1.16,1.81-2.3,3-3.02.62-.38,1.85,0,2.7.3,3.75,1.33,7.46,2.76,11.36,4.21.03.37.08.91.12,1.45-.31.28-.92.65-.87.82.12.41.56.74.87,1.09,0,3.46-.01,6.92-.02,10.38,0,1.42.04,2.82.98,4-.04,2.3,0,4.59,1,6.73.31.88.53,1.81.96,2.63,1.7,3.24,3.43,6.47,5.21,9.67.74,1.34.63,2.6,0,3.88-.42.85-.96,1.65-1.37,2.51-1.02,2.13-.78,2.75,1.54,3.44,4.05,1.2,8.11,2.33,12.19,3.42,6.39,1.7,12.79,3.32,19.18,5,1.47.39,2.66.07,3.61-1.14,1.08-1.37,2.19-2.73,3.31-4.07,2.53-3.04,4.33-6.7,7.76-8.96,1.81-.44,3.62-.87,5.39-1.3.14.31.24.44.26.59.3,2.44.74,4.88.85,7.33.15,3.35.36,6.74-.05,10.05-.41,3.32-.82,6.62-.86,9.97-.06,4.86-.26,9.72-.43,14.58-.02.55-.17,1.1-.3,1.64-1.49,6.57-4.1,12.73-7.03,18.76-.78,1.61-.94,3.16-.6,4.86.28,1.38.46,2.77.7,4.22-2.81-.62-3.14-1.18-2.23-3.49.29-.74.6-1.49.76-2.26.36-1.79-2.64-5.41-4.45-5.43-.23,0-.47.08-.69.16-2.41.82-3.24,3.08-1.95,5.26.16.26.27.55.57,1.14-.82.24-1.49.43-2.15.62-.22-.48-.36-.69-.41-.91-.68-2.88-3.03-4.41-5.05-6.17-.53-.46-1.48-.62-2.23-.63-1.95-.02-2.64,1.23-1.47,2.79,2.55,3.38,5.4,6.5,9.05,8.78,2.16,1.35,4.36,2.66,6.51,4.03,2.29,1.47,2.36,1.66,1.31,4.25-.64,1.57-.48,2.95.55,4.26,1.13,1.44,2.23,2.91,3.4,4.32,3.03,3.66,3.14,3.7,7.91,3.63.72,0,1.45-.09,2.16.01.6.09,1.27.26,1.75.6,2.72,1.95,5.35,4.02,8.09,5.93,2.46,1.72,2.3,4.23,2.66,7.04-1.13-.19-1.91-.22-2.63-.45-1.82-.6-3.58-1.36-5.41-1.91-1.56-.47-2.36-1.49-2.79-2.98-.42-1.45-.81-2.92-1.42-4.3-.93-2.11-2.97-2.96-5.15-2.33-1.59.45-1.95,1.21-1.5,2.87.56,2.08,2,3.61,3.31,5.2.74.89,1.63,1.78,2.65,2.28,4.58,2.25,9.27,4.3,13.85,6.55,1.32.65,2.69,1.55,3.57,2.69,2.81,3.67,5.56,7.4,8.01,11.3,2.16,3.43,3.9,7.12,5.82,10.69-.21.01-.42.03-.62.04-.26-.04-.52-.08-.78-.11-.4-1.24-1.38-1.82-2.55-1.67-1.16.15-.89,1.31-1.02,2.13-.02.13-.17.25-.4.56-.62-.36-1.26-.72-1.77-1.02-.09-1.56,1.28-2.7.44-4.12-.65.05-1.24.09-1.83.13-.16-.76-.29-1.36-.42-1.99-1.7-.49-3.02.28-4.34.97-.25.13-.46.45-.57.73-.81,1.94.76,6.51,2.67,7.82,1.09,1.55,2.05,3.21,3.29,4.63,2.15,2.47,4.51,4.74,7.55,6.17.92.43,1.79,1.04,2.57,1.71,2.43,2.06,4.88,4.11,7.18,6.31,1.55,1.48,2.9,3.18,4.27,4.84.37.45.48,1.11.75,1.77-1.88.99-3.61,1.6-5.67,1.19-.09-.35-.18-.64-.24-.94-.39-1.87-.9-2.22-2.56-1.38-1.34.68-2.66,1.48-3.81,2.44-1.25,1.04-1.04,1.82.49,2.4.91.35,1.84.63,2.77.94-1.09.51-2.08.85-3.08.85-.71,0-1.7-.25-2.09-.76-1.77-2.34-3.62-4.7-3.73-7.85-.06-1.69-.86-2.85-2.43-3.51-1.17-.5-2.32-1.07-3.47-1.6-1.29-.6-1.96-1.51-1.8-3.02.11-1.03.08-2.08,0-3.11-.03-.37-.35-.72-.66-1.31-1.53,1.69-.88,4.13-2.73,5.61-2.45-2.28-4.87-4.45-7.18-6.74-.51-.51-.64-1.42-.91-2.15-.28-.77-.53-1.55-.77-2.24-1.5.04-1.66,1.04-1.95,1.81-.22.58-.21,1.25-.32,1.88-.32,1.84.02,2.38,1.97,3.09.26,1,1,1.35,1.94,1.45.82.81,1.57,1.72,2.48,2.42,1.35,1.03,2.82,1.92,4.24,2.87.47.72.82,1.57,1.43,2.14,1.57,1.46,3.31,2.74,4.87,4.22.96.91,1.7,2.04,2.5,3.04-1.78,1.95-1.86,2.56-.43,3.62,4.4,3.25,9.33,5.16,14.8,5.53,2.27.15,4.7.26,6.25,1.93,1.52,1.64,2.55,3.8,3.53,5.85.45.94.15,2.22.42,3.29.43,1.69-.02,3.11-.89,4.5-.72,1.15-1.36,2.34-2.07,3.5-.63,1.02-.58,1.84.33,2.76.56.56.77,1.47,1.14,2.23-.67,0-1.34,0-2.02-.01-.94-.05-1.89-.11-2.83-.16-.29-.92-.78-1.07-1.48-.37-1.42-.04-2.85-.09-4.27-.13-.18-.56-.4-1.04-1.01-.34-1.6-.13-3.2-.26-4.8-.4-.29-.53-.61-.56-.96-.05-2.4-.13-4.8-.26-7.21-.39-.8,0-1.59,0-2.39-.01-1.44-.02-1.89,1.08-2.21,2.12-.34,1.13-.48,2.33-.61,3.5-.15,1.35.23,2.45,1.42,3.3.96.69,1.77,1.6,2.58,2.48,1,1.07,1.6,2.33,1.68,3.84.12,2.06.21,4.13.57,6.15.61,3.44,1.38,4.54,4.46,5.01.62.09,1.25.26,1.85.47,1.38.47,2.4,1.22,2.33,2.9-.02.42.28.86.43,1.29,0,.32.01.65.02.97-.4,3.4.3,6.48,2.56,9.15.61.72,1.06,1.59,1.57,2.4,1.01,1.63,1.62,3.32,1.59,5.34-.1,7.57,0,15.15-.07,22.73-.02,2.37-.36,4.73-.56,7.15-.67.23-1.25.56-1.86.63-2.05.24-4.11.4-6.17.58-2.22.2-4.44.36-6.65.58-4.26.43-8.52.92-12.79,1.33-2.53.24-5.07.38-7.61.56-4.28.31-8.56.61-12.84.92-.14-1.45-.27-2.9-.41-4.36.14-1.6.28-3.2.42-4.8.65-.45.65-.93.06-1.44.04-1.25.07-2.51.1-3.76.89-.31,1.06-.8.4-1.52.13-1.12.27-2.24.4-3.36.64-.45.64-.93.07-1.44.14-1.28.27-2.56.41-3.84.02-.32.03-.64.05-.96.14-1.6.29-3.2.43-4.8.64-.46.63-.94.05-1.44.01-2.45.26-4.93-.92-7.24-2.1-4.1-4.17-8.22-6.26-12.33-.76-1.5-1.96-2.1-3.69-2.06-4.06.1-8.13.03-12.19.04-1.13-.71-2.26-.78-3.36.06-2.72-.07-4.13-1.26-3.71-3.39.48-2.46.79-4.95,2.08-7.24,1.26-2.24.91-3.97-.55-5.19-1.28-1.07-2.64-2.04-3.9-3.13-1.85-1.6-3.63-3.27-5.58-5.03.94-1.85,1.82-3.54,2.65-5.24.48-.99,1.13-1.99,1.29-3.04.31-2.12.45-4.27.44-6.41,0-2.22-.28-4.44-.37-6.66-.06-1.29-.92-1.29-1.84-1.31-.71-1.46-1.97-.68-3.03-.73-2.78-.05-5.57-.21-8.34-.09-1.48.06-2.66-.48-4.06-.87,2.57-3.79,5.04-7.37,7.44-11,1.03-1.56.94-1.91-.29-3.28-.79-.88-1.58-1.77-2.37-2.66-.16-.96-.33-1.91-.49-2.87.47-2.4.94-4.8,1.4-7.19.13-.34.26-.69.4-1.03.06-1.25.13-2.51.19-3.76.28-.36.56-.72.84-1.07v-7.4c-2.3-.56-4.37-1.13-6.46-1.57-3.35-.7-6.71-1.32-10.07-1.96-1.57-.3-2.77-1.04-3.64-2.44-.88-1.42-1.88-2.77-2.93-4.07-2.03-2.51-2.51-2.53-5-.57-1.5,1.18-3,2.36-4.47,3.58-1.02.84-1.9.82-2.98,0-2.75-2.08-4.94-4.68-7.34-7.48.73-.78,1.36-1.56,2.11-2.23,1.19-1.06,2.47-2.01,3.66-3.06,1.59-1.39,1.55-1.82-.1-3.04-1.73-1.28-3.58-2.43-5.13-3.9-2.4-2.27-2.36-2.37-3.39.75-.35,1.06-.79,1.94-1.95,2.18-2.62.54-5.25,1.03-7.77,1.52-1.32-1.51-1.5-3.2-1.4-4.69.05-.75,1.54-1.41,2.39-2.09.62-.5,1.31-.92,1.9-1.44.62-.55,1.16-1.19,1.67-1.72-.82-1.41-1.68-.72-2.48-.55-.97.2-1.74.04-2.08-1.03-.8-2.47-1.61-4.94-1.67-7.58-.02-.32-.04-.64-.06-.95-.12-.64-.25-1.28-.37-1.93Z"/>
  </g>
</svg>