<?xml version="1.0" encoding="UTF-8"?>
<svg id="_Слой_2" data-name="Слой 2" xmlns="http://www.w3.org/2000/svg" viewBox="0 0 740.16 789.91">
  <g id="_Слой_1-2" data-name="Слой 1">
    <g>
      <path d="m369.43,789.91c-9.94-22.72-17.56-45.89-17.94-71.16-.2-13.33-4.45-26.01-12.15-37.23-.51-.74-1.06-1.45-.35-2.77,7.51,1.38,12.49,6.32,16.22,12.5,4.06,6.71,7.6,13.73,11.28,20.67,4.7,8.88,9.42,9.94,16.92,3.58,17.03-14.46,25.97-33.1,26.5-55.2.43-18.28-16.28-30.42-33.53-25.38-7.27,2.13-12.16,6.99-13.5,14.46-1.23,6.85-.69,13.54,6.01,18,3.93,2.61,7.93,2.96,11.99.51,3.29-1.99,5.27-4.8,4.95-8.89-.4-5.08-3.99-7.23-8.05-4.31-3.7,2.66-4.09.69-4.27-2.29-.39-6.42,5.4-11.8,11.71-10.63,4.83.89,9.2,3.1,11.07,7.9,7.13,18.27,2.5,30.49-17.24,34.85-14.15,3.13-29.04-5.59-37.95-20.24-11.66-19.17-16.79-40.41-20.19-62.22-.16-1.02.14-2.11.21-3.12,2.75-.38,2.44,1.85,3.08,3.05,4.79,8.92,14.12,13.1,23.84,10.59,8.89-2.3,10.56-6.95,5.3-14.84-7.24-10.84-14.04-21.9-18.62-34.21-3.65-9.81-5.52-19.93-4.87-30.33.3-4.81-.96-6.35-5.76-6.34-8.97.02-17.96.6-26.92-.85-4.54-.73-5.74-2.65-4.26-6.81.98-2.74,1.75-5.56,2.6-8.35q3.82-12.68,16.64-13.7c11.22-.89,18.65-7.77,21.45-18.93.57-2.26-1.8-8.67,5.4-5.95,1.72.65,1.07-1.84,1.07-3,.02-7.77.01-15.54.01-23.44,4.98.33,4.76,3.4,5.65,5.47,2.88,6.7,7.69,11.02,14.97,12.1,2.97.44,6.94,1.76,8.49-1.76,1.38-3.14,1.65-7.14-1.09-10.17-11.93-13.23-16.83-29.59-19.43-46.49-1.98-12.87-1.56-26.05,5.24-37.97,1.32-2.32,2.5-6.38,6.23-4.49,3.04,1.54,1.09,4.77.27,7.19-1.1,3.21-2.04,6.37-1.83,9.85.49,8.08,5.13,10.86,12.25,6.88,8.34-4.67,13.78-12.02,14.61-21.4,1.35-15.22.04-29.53-12-41.71-10.06-10.18-21.28-14.86-34.5-11.54-14.09,3.55-22.89,13.95-26.12,28.14-2.22,9.73-2.88,19.66,4.66,27.98,1.21,1.33,1.66,2.73.16,4.1-1.83,1.67-3.41.35-4.78-.73-13.94-11.02-24.26-24.06-23.39-43.09.62-13.61,5.31-25.56,13.6-36.52,6.98-9.22,14.83-18.08,17.79-29.83,1.14-4.52,3.72-3.62,6.18-.83,2.56,2.9,2.14,6.17,1.15,9.53-1.73,5.86-4.54,11.21-7.71,16.39-.81,1.33-1.89,2.88-.86,4.36,1.01,1.46,2.93,1.01,4.4.85,5.71-.63,9.22-4.22,11.52-9.17,11.93-25.69,6.6-46.93-21.52-66.14-6.88-4.7-9.22-4.62-2.05-13.38,8.19-10.01,18.4-17.6,30.71-23.82-6.67-.18-19.53,6.72-25.62,13.61-3.51,3.96-6.48,4.38-9.81.02-1.07-1.41-1.73-2.75-.39-4.18,7.56-8.12,7.31-17.9,6.11-27.92-.09-.79.15-1.61.2-2.14,1.58-.78,2.32,0,2.67.71,5.77,11.49,16.52,12.54,27.47,13.17,1.97.11,3.81-.13,5.74,1.15,3.53,2.34,4.89,4.96,4.06,9.33-1.06,5.58-.42,11.16,2.36,16.35,3.72,6.96,9.34,10.74,17.32,10.57,4.04-.08,8.08-.6,12.12-.59,2.33,0,5.55-1.15,6.76,1.5,1.31,2.87-2.11,3.96-3.62,5.72-.29.34-.68.59-1.01.9-8.79,8.2-11.49,20.7-6.49,30.04,3.95,7.37,17.22,12.09,27.44,10.25,13.01-2.34,23.01-9.5,31.88-18.76,1.33-1.39,2.53-3.85,4.77-3.17,2.47.75,1.21,3.49,1.72,5.32,5.82,20.74,10.79,42.06,29.67,55.7,19.1,13.8,49.15,7.24,59.9-14.97,2.17-4.47,5.66-5.43,10.65-4.25,51.03,12.16,91.74,41,126.8,78.67,25.14,27.01,45.07,57.57,59.49,91.65,3.07,7.24,5.23,14.73,7.12,22.32.43,1.73.14,3.18-1.59,3.94-2.23.97-2.55-.89-3.2-2.29-18.21-39.13-43.83-71.92-81.17-94.62-20.06-12.19-40.93-22.33-64.62-25.34-8.92-1.14-17.88-2.31-26.82-1.83-6.69.36-9.03-2.11-8.55-8.37.09-1.23.41-2.77-2.18-3.77.77,9.18-.63,17.84-2.34,26.47-4.5,22.75-16.27,42.09-28.66,61.12-3.31,5.08-6.79,10.05-10.35,14.95-2.44,3.36-5.12,5.65-10.11,4.96-5.05-.7-9.53,6.24-7.74,12.3,1.05,3.56-.05,5.43-2.13,7.66-6.62,7.11-13.85,13.37-22.4,18.18-12.99,7.31-24.6,2.01-27.41-12.8-2.59-13.65,7.13-24.88,20.71-23.97,2.79.19,5.26,1.04,7.3,2.98,1.11,1.06,2.69,2.03,2.23,3.84-.45,1.76-2.11,1.21-3.39,1.23-2.96.05-4.6,1.89-5.1,4.45-.49,2.49,1.11,4.3,3.28,5.32,2.86,1.35,4.6-.5,6.23-2.5,4.05-4.96,4.2-11.29,5.47-17.07,1.8-8.18,6.01-12.21,14.39-13.4,13.24-1.87,17.73-8.59,15.24-21.99-.94-5.06,0-8.46,3.92-12.13,15.9-14.88,26.12-33.5,33.75-53.67.28-.75,1.07-1.53-.57-2.96-2.6,8.4-9.11,8.84-16.42,8.79-28.65-.21-55.13,8.76-81.06,19.82-3.09,1.32-6.3,2.36-9.43,3.58-1.45.57-3.07,1.73-4.3.24-1.45-1.76.14-3.36,1.12-4.78,1.78-2.59,3.76-5.04,5.5-7.65,13.31-20,3.69-38.24-10.77-51.09-1.07-.95-2.54-2.24-4.23-1.27-1.69.97-1.03,2.78-1.04,4.28-.05,6.97-.09,13.93-.03,20.9.1,12.44-2.61,24.05-10.05,34.27-8.41,11.55-9.75,24.36-6.38,37.82,1.55,6.18,4.73,11.33,12.12,11.57,3.55.11,3.89,1.58,3.23,4.76-1.93,9.36-7.53,16.68-12.81,24.21-1.93,2.75-4.08,5.35-5.9,8.17-2.88,4.44-3.04,8.63,1.04,12.75,3.96,4.01,8.03,4.24,12.76,1.74,8.61-4.56,9.35-4.45,8.37,5.31-1.79,17.81-6.98,34.31-22.27,45.72-1.08.8-2.19,1.62-3.07,2.61-1.34,1.51-2.77,3.35-2.1,5.36.71,2.11,3.12,1.44,4.76,1.47,9.97.15,19.39-1.03,24.7-11.25.48-.92,1.3-2.26,2.56-1.61,1.71.89,2.05,2.79,2.29,4.59,1.5,11.24,1.27,22.56-1.26,33.48-4.61,19.85-11.47,38.8-28.31,52.11-3.58,2.83-5.94,6.56-3.45,10.39,2.58,3.96,7.38,4.96,12.05,3.04,12.05-4.95,21.71-12.47,25.94-25.36.78.26,1.49.36,1.51.53,2.32,23.77,3.08,47.65-.72,71.21-3.48,21.54-14.67,40.21-28.64,56.4-16.92,19.62-30.67,40.21-33.68,66.58h-6.75Zm36.45-229.63c.33-4.64-.21-9.48-2.51-14.02-4.03-7.94-10.81-9.53-18.32-4.75-4.22,2.68-5.58,6.92-7.14,11-3.81,9.98-5.97,20.24-1.64,30.63,3.67,8.79,12.04,10.43,18.81,3.88,7.44-7.2,11.46-15.87,10.8-26.75Zm-12.12-61.04c-.08-7.75-1.49-13.98-4.42-19.92-2.32-4.71-4.53-4.45-7.77-.73-7.7,8.87-7.75,26.93.02,35.56,2.43,2.7,4.42,2.41,6.68-.06,4.18-4.56,5.83-9.93,5.48-14.85Zm2.74-78.49c.46-5.32-.61-10.54-3.14-15.41-.88-1.69-1.57-3.85-4.32-1.31-7.91,7.3-11.06,26.83-5.46,35.81,2.41,3.86,4.92,4.25,7.59.18,3.81-5.8,5.49-12.18,5.32-19.27Zm-56.32,56.78c.39,12.52,3.65,21.52,10.89,29.76,4.44,5.05,9.2,9.81,13.87,14.66,1.32,1.37,2.36,2.92,1.87,4.78-.67,2.56-2.97,1.4-4.54,1.42-6.06.05-12.12-.24-18.18-.12-1.81.04-4.55-1.14-5.35,1.24-.84,2.51,1.49,3.9,3.42,5.11,6.59,4.15,25.54-.06,29.68-6.56,1.37-2.14.88-3.48-1.13-5.03-14.92-11.45-24.79-26.43-30.53-45.27Z"/>
      <path d="m245.22,350.45c5.67,5.79,10.69,10.25,14.95,15.36,18.63,22.37,10.91,63.18-14.89,72.32-25.09,8.88-50.49,4.79-61.58-20.53-5.62-12.84-8.84-26.89,2.76-39.03,7.1-7.44,15.94-11.13,26.18-8.96,8.97,1.9,15.02,7.54,17.27,16.82.84,3.46.37,6.66-.94,9.83-.62,1.5-1.63,2.9-3.41,2.68-1.71-.21-1.54-1.88-1.75-3.19-.65-4.01-3.91-4.84-7.02-4.88-3.09-.04-5.65,1.8-6.45,4.97-.88,3.51.93,6.24,3.79,7.94,3.92,2.32,8.18,2.52,12.2.18,4.99-2.9,6.66-7.84,6.76-13.16.24-13.4-10.79-24.54-24.33-24.39-11.67.13-23.33.86-34.99,1.22-17.03.52-32.83-3.51-47.29-12.71-7.42-4.72-8.01-6.57-3.08-13.62,1.67-2.38,3.57-4.62,5.55-6.75q9.06-9.7,21.29-4.19c3.5,1.57,7.06,2.9,11.99,1.42-4.58-6.25-5.35-13.15-4.56-20.4.45-4.09-2.22-3.06-4.3-2.04-7.13,3.49-13.49,8.1-18.79,14.02-5.54,6.18-11.22,12.27-15.62,19.38-1.57,2.54-3.35,3.5-4.32-.31-6.71-26.24-6.18-52.32,2.03-78.18.18-.58.83-1.02,1.44-1.73,2.62,1.4,2.51,4.07,2.86,6.28,1,6.34,4.74,11.08,8.8,15.6,1.95,2.18,4.37,3.06,7.07.74,1.52-1.31,3.31-2.31,4.93-3.51,3.78-2.8,8.54-5.02,10.51-9.25,2.4-5.13-3.6-7.93-5.18-12.11-9.73-25.8-3.61-63.97,29.09-74.59,19.1-6.2,48.62,1.04,57.65,15.85,6.81,11.17,8.96,39.57-1.44,51.8-12.72,14.96-39.48,10.5-47.75-4.21-4.45-7.91-2.55-19.64,4.43-25.09,3.98-3.11,8.34-4.38,13.13-1.91,2.17,1.12,4.93,2.18,5.27,4.8.38,2.92-2.87,2.05-4.44,2.96-2.75,1.6-2.92,4.11-1.76,6.39,1.56,3.09,4.18,1.98,6.29.48,3.47-2.47,4.62-6.12,3.7-10.11-1.18-5.12-3.88-9.06-9.64-9.94-8.64-1.32-17.25,2.93-21.46,10.65-6.7,12.3-.36,34.5,11.81,41.24,1.89,1.05,3.97.74,5.94.39,17.33-3.12,33.5,1.03,48.92,8.42,6.57,3.15,13.87,5.08,19.34,10.41,1.94,1.89,2.67,3.58,2.33,6.44-1.43,11.79-1.47,23.97,1.94,35.07,3.7,12.07,5.44,25.39,14.87,35.21.88.91,2.29,1.98,1.33,3.42-1.07,1.59-2.62,1.14-4.17.36-7.01-3.51-13.92-7.14-20.07-12.12-4.6-3.73-9.81-6.03-17.15-5.73Zm5.1-34.35c-13.88-11.64-24.66-15.87-33.29-13.58,4.98,7.68,5.47,15.75,1.25,24.85,7.21-.67,11.41-4.93,15.5-8.68,5.08-4.66,9.81-7.79,16.54-2.59Z"/>
      <path d="m203.29,127.65c-4,2.7-8.14,5.21-11.96,8.14-4.3,3.3-5.98,3.37-6.92-2.87-5.47-36.41-23.06-66.37-51.13-89.7-20.1-16.71-44.42-24.56-69.96-29.13-19.32-3.46-38.75-4.48-58.29-4.76-1.72-.03-3.6.52-5.03-1.02C17.36-9.12,188.05,3.16,217.99,23.97c-10.39,6.09-12.43,10.4-9.36,22.43,5.87,22.97,16.58,42.18,40.89,50.24,1.48.49,2.86,1.24,4.28,1.9.17.08.25.33.92,1.28-14.08,6.05-28.11,12-40.45,21.29,1.92,1.91,2.96.32,4.18-.4,12.15-7.16,24.33-14.2,37.84-18.63,3.56-1.17,5.51-.73,6.32,3.11.41,1.97,1.09,3.88,1.69,5.81,3.12,10.02,2.86,9.58-5.73,14.89-11.9,7.36-17.46,18.25-15.7,32.48.18,1.44,1.37,3.21-.35,4.34-1.64,1.08-2.88-.51-4.18-1.22-8.83-4.8-17.55-9.87-27.81-11.21,14.07,4.71,25.36,14.56,38.72,20.56,8.68,3.9,15.52,3.76,21.87-.92-13.76,2.08-19.72.03-23.81-8.17-4.49-9.01-1.79-20.56,6.17-28.97,14.33-15.16,43.62-8.72,52.17,9.61,7.95,17.05,8.67,35.53-6.46,49.73-12.45,11.68-27.02,14.81-43.54,9.92-12.18-3.6-22.38-11.3-34.27-15.5-13.46-4.76-27-9.1-41.32-5.67-22.95,5.5-33.4,22.55-38.53,43.88-3.19,13.28-4.29,26.39,2.27,39.35,4.5,8.89,3.8,8.91-4.9,14.84-3.77,2.57-5.97,1.81-8.39-1.32-9.32-12.02-14.16-25.04-7.79-39.95,11.92-27.87,23.37-56.07,45.97-77.65,2.63-2.51,5.17-5.34,8.75-6.04,4.62-.9,2.19-5.65,5.31-7.96,7.32-5.42,14.07-11.69,21.52-17.05-.32-.45-.65-.9-.97-1.35Zm71.52,40.32c2.26-2.65,4.2-4.62,4.3-7.48.14-3.65-1.12-6.82-4.88-7.85-2.02-.55-4.93-.56-5.73,2.03-1.17,3.75.3,6.94,4.35,7.65,4.17.73,1.15,3.41,1.96,5.65Z"/>
      <path d="m428.48,126.29c1.4,5.37,1.25,9.08-3.26,10.64-4.66,1.61-12.19-1.28-14.28-5.26-2.38-4.51-.75-11.46,3.4-14.55,13.8-10.27,28.75-6.57,36.04,8.91.36.77.74,1.54,1.15,2.4,3.86-3.77,14.85-1.46,17.46,3.35.72,1.33.18,1.86-.86,2.63-5.48,4.06-3.35,8.79-.38,12.83,3.05,4.16,10.97,4.76,14.49.93,2.81-3.06,4.23-2.16,6.34.2,22.31,25.07,43.6,50.79,53.82,83.64.85,2.72,2.93,6.76.22,7.91-3.72,1.58-3.76-3.45-4.95-5.65-11.02-20.41-26.16-36.95-45.75-49.36-3.14-1.99-5.59-3.65-5.03-8.31.65-5.34-4.19-6.52-8.13-7.05-4.64-.62-9.39-.33-14.09.5-9.78,1.71-16.1-1.65-19.65-10.8-.95-2.46-1.39-3.33-4.04-2.05-14.82,7.14-29.21,4.74-43.27-2.37-15.01-7.58-29.89-15.41-44.98-22.83-9.47-4.66-17.38.03-18.1,10.35-.3,4.35,1.53,7.22,7.11,8.23-2.69-5.19-3.26-9.99,1.42-13.22,3.69-2.55,8.17-2.66,12.16-.39,5.03,2.86,8.31,7.24,7.35,13.27-2.52,15.83-13.6,24.69-31.43,18.05-13.88-5.17-21.6-20.12-19.67-36.26,1.49-12.48,13.1-22.44,27.34-24.79,20.03-3.31,36.31,4.03,51.64,15.87,7.6,5.88,13.87,13.45,22.56,17.93,6.99,3.6,14.92,2.15,18.78-3.3,3.04-4.3,2.57-6.69-3.38-11.45Z"/>
      <path d="m134.12,401.44c11.08,3.41,20.69,6.18,30.93,5.48,3.78-.26,7.93-2.84,11.15-.82,3.4,2.13,1.54,7,2.6,10.6,5.01,17.16,18.13,27.05,38.63,29.21,15.49,1.64,29.05-4.61,42.86-9.6,11.03-3.99,21.95-7.75,33.82-7.89,19.04-.23,32.79,11.18,37.35,29.84,6.32,25.86-15.65,37-32.36,34.78-10.93-1.45-17.84-13.67-13.5-24.01,1.7.02,2.13,1.44,2.75,2.58,1.45,2.66,3.46,3.99,6.61,3.26,3.75-.87,4.88-3.88,5.36-6.99.46-2.99-1.42-5-4.12-6.24-4.5-2.08-8.82-.97-13,.84-24.84,10.77-50.84,15.63-77.84,14.77-8.35-.27-15.87-3.19-22.77-8.66-22.1-17.49-36.3-40.48-48.47-67.16Z"/>
      <path d="m257.82,356.55c3.63,1.05,6.22,3.37,8.78,5.61,6.01,5.27,12.98,8.92,20.43,11.35,5.06,1.65,8.38,4.5,11.25,8.84,8.89,13.45,20.17,24.63,33.59,33.61,3.76,2.52,7.97,5.49,12.15,5.34,7.19-.26,8.37,3.49,8.24,8.94-.18,7.95,4.21,13.44,9.56,18.42,3.3,3.08,5.33,7.34,2.92,10.76-2.57,3.64-6.4-.38-9.61-1.25-3.93-1.07-5.18-4.7-6.84-7.85-1.14-2.17-2.09-4.44-3.3-6.58-1.02-1.8-2.79-2.2-4.69-1.76-1.95.45-2.11,2.2-2.22,3.74-.23,3.36-.3,6.73-.38,10.1-.06,2.37.25,4.81-1.41,7.06-2.8-2.16-2.14-5.17-2.67-7.63-4.79-22.23-23.35-35.2-46.01-31.94-6.02.86-11.9,2.19-17.34,5.06-1.84.97-3.96,1.83-5.46-.29-1.89-2.67.97-3.39,2.36-4.54,8.54-7.1,7.77-17.15,8.13-26.62.5-13.3-5.38-24.23-13.96-33.97-1.47-1.67-4.29-2.72-3.51-6.39Z"/>
      <path d="m457.34,490.88c-15.33,10.24-27.23,22.4-44.61,26.34,17.97-16.3,16.91-36.67,15.06-58.92-3.88,3.18-6.47,5.47-9.23,7.54-3.25,2.43-6.78,2.69-9.85-.12-2.96-2.7-3.69-6.22-1.54-9.77,3.84-6.33,7.99-12.48,11.78-18.83,1.22-2.04,2.78-1.87,4.56-1.79,28.01,1.33,51.37-10.33,73.24-26.19,1.7-1.23,3.25-4.07,5.57-2.59,1.77,1.12,1.98,3.88,2.22,6.16,1.05,9.98-3.48,15.24-13.47,15.59-9.39.32-14.97,5.24-16.09,14.64-.48,4.01-1.19,5.18-5.29,2.79-10.8-6.31-16.51-5.39-25.82,3.27-7.19,6.69-9.3,17.64-5.01,26.57,3.48,7.25,8.13,13.35,18.48,15.32Z"/>
      <path d="m201.46,482.52c11.56,0,22.3,0,33.04,0,12.69-.01,24.24-4.22,35.1-10.28,4.6-2.57,6.6-3.31,6.77,3.23.3,11.78,5.62,17.82,17.72,20.69,2.6.62,2.93,1.69,1.98,3.67-2.96,6.12-4.08,12.81-6.13,19.2-.82,2.57-1.84,4.59-5.13,3.86-30.08-6.67-58.53-16.85-81.97-37.86-.44-.4-.62-1.1-1.36-2.5Z"/>
      <path d="m325.28,89.78c9.97,0,16.72.1,23.46-.03,5.71-.11,7.05,2.97,7.31,8.09.3,5.87-3.28,5.3-6.93,5.2-16.02-.41-28.79,5.45-37.78,19.09-1.69,2.56-2.33,5.17-2.97,8.04-.81,3.61-3.15,5.26-6.1,1.79-7.38-8.69-17.37-10.37-27.88-10.86-1.07-.05-2.26-.09-3.16-.57-1.42-.77-5.89-19.67-5.19-21.24.9-2.02,3.06-1.92,4.62-2.24,19.08-3.93,38-9.31,54.61-7.27Z"/>
      <path d="m117.45,352.22c7.89,5.08,14.26,10.39,22.29,12.91,14.49,4.55,29.23,6.36,44.37,5.03,1.7-.15,4.06-1.11,4.99.64,1.3,2.44-1.69,3.27-2.92,4.52-6.35,6.52-12.71,12.87-10.16,23.3.66,2.71-1.66,2.61-3.46,2.73-12.62.83-25.02-.92-37.34-3.31-1.74-.34-3.38-1.03-4.5-2.66-8.74-12.6-14.42-26.15-13.26-43.16Z"/>
      <path d="m244.31,220.66c.24-5.78-1.72-11.83-5.54-17.37-.81-1.17-2.62-2.47-1.13-4.06,1.6-1.7,2.77.21,3.94,1.07,19.92,14.51,39.07,13.15,57.18-4.53,4.21-4.11,5.98-.79,8.73,1.39,3.35,2.66,3.2,4.9.03,7.53-7.47,6.21-12.59,14.59-19.49,21.34-2.62,2.57-4.38,5.81-4.8,9.43-.59,5.14-3.28,6.1-7.36,4.02-7.45-3.81-15.71-4.93-23.56-7.38-7.83-2.45-7.91-2.19-7.99-11.43Z"/>
      <path d="m225.19,264.23c12.28-5.2,18.74-13.83,18.09-27.12-.14-2.84,1.66-3.96,4.42-3.54,9.73,1.49,19.01,4.44,28.08,8.21,3.17,1.32,3.07,3.07,1.79,5.78-4.83,10.27-7.51,21.03-6.89,32.49.09,1.71.58,3.8-1.31,4.91-1.94,1.14-3.53-.38-4.81-1.43-11.12-9.04-23.28-15.78-37.76-17.62-.34-.04-.62-.61-1.63-1.67Z"/>
      <path d="m406.94,131.36c-9.81-9.54-21.19-16.17-32.75-22.5-3.12-1.71-6.59-3.72-9.96-3.84-7.1-.24-5.6-4.6-5.28-8.78.44-5.64,3.9-5.04,8.09-4.58,17.55,1.93,34.18,6.98,50.31,13.93,1.79.77,4.38.79,4.64,3.26.31,2.97-2.69,2.63-4.32,3.22-9.03,3.25-11.4,10.03-10.74,19.28Z"/>
      <path d="m398.62,161.99c-12.8-2.25-25.65-4.25-38.23,2.86,3.42-6.88,6.48-13.28,4.46-20.96-.65-2.46,1.84-1.75,3.17-.94,3.43,2.09,7.07,3.97,10.13,6.53,4.94,4.12,10.57,6.59,16.55,8.58,1.57.52,4.43.06,3.91,3.93Z"/>
    </g>
  </g>
</svg>