<?xml version="1.0" encoding="UTF-8"?>
<svg id="_Слой_2" data-name="Слой 2" xmlns="http://www.w3.org/2000/svg" viewBox="0 0 1447.11 93.09">
  <defs>
    <style>
      .cls-1 {
        stroke: #000;
        stroke-miterlimit: 10;
      }
    </style>
  </defs>
  <g id="_Слой_1-2" data-name="Слой 1">
    <path class="cls-1" d="m143.46,12.53c-22.81-1.25-44.92-8.06-67.52-11.4-14.59-2.15-44.34,1.82-60.73,1.99-25.13.26-10.87,37.64-9.02,52.41,1.86,14.82,3.25,14.96,18.02,16.68,28.18,3.3,56.63,3.02,84.91,4.92.3-5.07.6-10.14.89-15.21,32.09,22.88,75.47,29.03,112.66,15.97,2.03-4.94,4.07-9.89,6.1-14.83,10.58,15.57,32.52,17.13,51.34,17.13,49.46,0,98.92.02,148.38.03,3.59,0,7.93-.43,9.53-3.66s-4.39-7.07-5.33-3.6c33.85,1.98,67.69,3.95,101.54,5.93,13.66.8,29.63.6,37.99-10.23.8,5.45,1.59,10.9,2.39,16.35,12.88,2.43,26.95-3.89,33.69-15.13,12.6,12.29,32.16,12.96,49.76,12.88,47.18-.21,94.36-.43,141.53-.64,13.71-.06,27.43-.12,41.14-.14,8.01,8.68,25.75.01,23.84-11.64,18.22,27.01,67.56-10.77,91.74,11.07,1.8-3.34,3.59-6.68,5.39-10.02,14.83,15.82,40.57,9.72,61.62,4.52s49.58-4.52,56.98,15.87c8.66-18.37,33.78-19.83,54.04-18.6,48.57,2.95,97.15,5.89,145.72,8.84,10.11.61,21.33.88,29.06-5.67,24.92,9.36,53.26,9.27,78.12-.24,3.81-1.46,7.62-3.15,11.68-3.53,4.68-.44,9.32.87,13.84,2.18,11.34,3.27,33.83,16.79,33.82-1.97,0-22.26-5.76-44.6-2.35-66.6C1026.21,1.78,607.49.76,189.42,2.37c-26.34.1-52.12,7.01-78.45,7.09-33.11.1-82-11.57-69.65,4.06.08.1-.24-.12-.35-.18"/>
  </g>
</svg>