<?xml version="1.0" encoding="UTF-8"?>
<svg id="_Слой_2" data-name="Слой 2" xmlns="http://www.w3.org/2000/svg" viewBox="0 0 58.15 79.14">
  <defs>
    <style>
      .cls-1 {
        fill: #fcd9c4;
      }
    </style>
  </defs>
  <g id="_Слой_1-2" data-name="Слой 1">
    <path class="cls-1" d="m1.89,50.46c-.5-2.55-1.01-5.1-1.51-7.65-.42-1.63-.56-3.2-.1-4.91.34-1.27.13-2.68.13-4.03.01-3.1,0-6.2.01-9.3,1.27-1.2,2.64-2.32,3.79-3.63,1.01-1.14,1.62-2.54,1.5-4.16-.07-.95-.09-1.92.01-2.87.07-.59.29-1.24.64-1.72,1.61-2.16,3.23-4.33,4.98-6.37.87-1.02,1.16-1.88.73-3.22-.53-1.66-.1-2.09,1.77-2.5,3.5-.5,6.13.96,8.84,3.15,4.11,3.33,7.9,6.95,11.5,10.77,3.1,3.29,5.92,6.86,8.81,10.34,1.4,1.69,2.05,3.72,2.53,5.85.69,3.1,1.61,6.14,2.31,9.24.36,1.6,1.26,2.72,2.56,3.55.78.5,1.31,1,1.46,2.01.09.62.66,1.21,1.11,1.74,1.05,1.23.97,1.99-.44,2.84-.48.29-.99.51-1.49.77-2.47,1.26-2.91,3.82-.94,5.85.54.55,1.25,1.11,1.97,1.29,3.15.75,4.65,3.07,6.05,5.95-1.86.81-3.64,1.58-5.41,2.35-1.32-.14-2.08.77-2.75,1.63-1.56,2.01-2.95,4.14-4.52,6.14-1.32,1.69-2.78,3.28-4.19,4.9-.5.58-1.07.8-1.91.59-7.1-1.76-14.22-3.43-21.32-5.21-3.4-.85-6.75-1.85-10.12-2.8-.36-.1-.7-.31-1.33-.59.44-1,.78-1.93,1.25-2.8,1.13-2.07,1.58-4.03.24-6.29-1.9-3.21-3.51-6.59-5.27-9.87-.21-.4-.62-.7-.94-1.04Z"/>
  </g>
</svg>