<?xml version="1.0" encoding="UTF-8"?>
<svg id="_Слой_2" data-name="Слой 2" xmlns="http://www.w3.org/2000/svg" viewBox="0 0 154.14 103.87">
  <defs>
    <style>
      .cls-1 {
        fill: #f7b489;
      }
    </style>
  </defs>
  <g id="_Слой_1-2" data-name="Слой 1">
    <path class="cls-1" d="m84.86.05c-.37,1.36-.54,2.82-1.16,4.06-.95,1.91-1.34,3.83-1.3,5.96.1,4.6.02,9.21.11,13.82.07,3.56.3,7.13.46,10.69-.84,4.21,2.05,6.59,4.54,9.16,1.27,1.31,2.56,2.6,3.92,3.83,1.64,1.48,3.35,2.89,5.06,4.3,1.84,1.51,3.77,2.93,5.57,4.49,1.5,1.31,3.16,1.99,5.15,2.2,3.87.42,7.14,1.82,9.26,5.46,1.91,3.27,4.24,6.29,6.38,9.42,1.2,1.76,2.54,1.79,3.74.04.54-.78,1-1.63,1.49-2.45.69-.01,1.38-.03,2.06-.04q.91,2.09,3.24,2.01c.47-.02.93-.04,1.4-.05.65,0,1.29-.01,1.94-.02.84.4,1.05,1.1,1,1.97-.05.84-.01,1.69-.01,2.84,1.42,0,2.51-.04,3.61,0,1.96.08,3.68.57,5.06,2.18,2.39,2.78,4.57,5.41,4.97,9.42.45,4.46,1.8,8.82,2.77,13.23-.05.23-.09.46-.14.68-2.22-.78-4.4-1.74-6.69-2.28-2.09-.49-4.21-.43-6.09,1.1-.92.75-2.15,1.13-3.53,1.82-.23-.98-.36-1.56-.5-2.14l-.36-4.28c-.01-1.27,0-2.54-.05-3.81-.07-2.16-.42-2.52-2.5-2.58-3.65-.11-7.29-.19-10.94-.3-.22,0-.44-.14-.85-.28-.21-2.13-.43-4.32-.65-6.51-.79-3-1.05-3.19-4.08-2.85-1.08.12-2.15.3-3.65.52.37-1.5.66-2.61.93-3.72.22-.92.54-1.84.6-2.78.13-2.04-.61-2.73-2.69-2.6-.95.06-1.89.33-2.84.4-1.03.07-2.07.02-3.11.02-.49-1.17-.86-2.3-1.42-3.31-.72-1.29-1.31-1.36-2.45-.37-.78.68-1.5,1.43-2.19,2.2-1.86,2.08-2.85,2.15-5.52.12.39-.77.82-1.58,1.22-2.42.23-.49.59-1.01.57-1.51-.09-2.68-1.56-3.55-4.01-2.43-.95.43-1.85.95-2.81,1.35-1,.43-1.85.27-2.44-.78-.78-1.39-1.66-2.73-2.42-4.13-.81-1.5-2-2.22-3.7-2.15-4.23.18-8.45.34-12.68.52-1.29.05-2.01.92-2.54,1.93-1.59,3.02-3.18,6.05-4.68,9.12-1.14,2.35-1.14,2.54-3.79,2.31-3.88-.35-7.74-.92-11.62-1.38-1.66-.2-3.07-.94-4.21-2.09-3.77-3.78-7.48-7.63-11.24-11.43-.55-.56-1.16-1.09-1.82-1.52-3.9-2.5-7.85-4.92-11.74-7.44-4.95-3.21-9.83-6.54-14.8-9.72-1.46-.93-1.67-2.36-1.77-3.72C.55,30.23.24,24.34.01,18.45c-.11-2.82.38-3.41,3.08-4.4,7.34-2.68,14.68-5.38,22.07-7.94,3.31-1.15,6.72-1.99,10.1-2.94.61-.17,1.25-.21,1.89-.27,5.95-.48,11.9-.97,17.86-1.43,2.62-.2,5.25-.35,7.87-.52,4.61-.31,9.22-.68,13.83-.9,2.71-.13,5.44-.02,8.16-.02Z"/>
  </g>
</svg>