<?xml version="1.0" encoding="UTF-8"?>
<svg id="_Слой_2" data-name="Слой 2" xmlns="http://www.w3.org/2000/svg" viewBox="0 0 215.64 582.23">
  <defs>
    <style>
      .cls-1 {
        fill: #c8e2f7;
      }

      .cls-2 {
        fill: #93c8ed;
      }

      .cls-3 {
        fill: #95c9ee;
      }

      .cls-4 {
        fill: #92c8ed;
      }

      .cls-5 {
        fill: #97caee;
      }

      .cls-6 {
        fill: #99cbee;
      }
    </style>
  </defs>
  <g id="_Слой_1-2" data-name="Слой 1">
    <path class="cls-4" d="m137.91,467.54c.16.32.32.65.47.97-.29.09-.58.18-1.13.36.87,1.75,1.69,3.36,2.5,4.99.43.88,1.18.98,2.03.87.61.78,1.22,1.56,1.83,2.34-.19,1.3.45,1.68,1.63,1.47,1.36.53,2.72,1.05,4.07,1.58.33,1.94.68,2.14,2.06,1.2.75.09,1.49.18,2.24.27.41.43.76,1.06,1.46.39.76,0,1.52,0,2.29,0,.06,1.5.15,3.01.16,4.52.01,1.37.39,2.45,1.73,3.11,1.38.68,1.74,1.92,1.66,3.4-.06.97-.6,2.05.39,2.89.16.1.31.19.47.29.53.02,1.06.05,1.86.08.03-1.16.06-2.22.1-3.27.15-.32.29-.64.44-.96.33-.32.67-.64,1-.96,0-.13,0-.25,0-.38.48-.03.96-.06,1.44-.09.39.23.79.45,1.18.69q1.63,1.01,3.13-.23c.33,0,.65,0,.98,0,.16,1.07.42,2.13.46,3.2.07,2.2.02,4.4.02,6.85,1.23,0,2.17.09,3.08-.02,1.7-.21,2.68.53,3.33,2.04.69,1.6,1.5,3.15,2.25,4.72.61.95,1.22,1.9,1.83,2.85.7,0,1.4-.02,2.1-.02.71.84,1.44,1.67,2.12,2.53,1.22,1.56,2.78,1.64,4.48,1.05,1.96-.67,3.83-1.51,5.16-3.2.42.67.84.54,1.32.05.34-.33.75-.59,1.45-1.14.12,1.2.2,1.96.27,2.71,0,0-.01.01-.01,0-1.74.23-2.46.77-2.41,1.88.05,1.3.94,1.46,1.98,1.38.3.33.6.66.9.98-.28.09-.56.19-1.11.37.74,1.01,1.4,1.85,2.01,2.74.74,1.09,1.71,1.21,2.84.76.92.59,1.8,1.21,1.93,2.46-1.48,1.13-3.19.67-4.76.93-.15-.05-.29-.06-.45-.05-1.86.37-1.96.48-1.94,2.23.02,1.82.3,2.18,1.99,2.51,0,0-.01,0-.01,0,.21.49.29,1.18.66,1.42,1.98,1.29,4.02,2.49,6.08,3.66.19.11.63-.22.95-.34.41.37.81.75,1.22,1.12-1.63,1.19-1.58,3.13-2.11,4.81-.03.1.31.32.47.49-.18.46-.36.93-.54,1.39-1.09-.07-1.5.71-1.73,1.54-.06.2.45.55.7.83.13,1.25-.68,2.05-1.4,2.89-1.13.71-1.41,1.61-1.04,3.26.04.19.07.39.11.58-.16.47-.32.95-.48,1.42,0,.17,0,.33,0,.5-.16.47-.31.95-.47,1.42-.15,3.2-.63,6.4.08,9.59.11.32.22.64.33.96,0,.64.01,1.27.02,1.91-.29.33-.88.78-.81.98.37,1.02-.18,1.78-.5,2.63-.27.71-.38,1.48-.57,2.23,0,0,0,0,0,0-.38.21-.88.32-1.12.64-2.07,2.71-3.92,5.51-2.8,9.2-.96.04-1.92.07-2.88.11-2.82-.72-5.64-.55-8.47-.09-.06.01-.11.1-.17.16-1.12-.02-2.24-.03-3.36-.05-.18-1.65-1.44-1.38-2.53-1.41-1.07-.03-2.14-.05-2.27,1.43-7.52,0-15.04,0-22.56,0-.07-1.54.46-3.36-1.84-3.83,0-1.28-.01-2.56-.02-3.84.36-.15.8-.21,1.06-.46,1.54-1.47,1.94-3.92,1-5.83-.39-.79-.82-1.55-1.16-2.35-.56-1.33-1.48-2.02-2.96-1.88-.14-.15-.29-.3-.43-.45.04-.78.03-1.52-1.08-1.45-1.45-1.71-2.36-3.55-1.38-5.83.45-.25.89-.5,1.33-.74-.25-.22-.51-.44-.76-.67.14-.96.29-1.93.43-2.89.63-.79.63-1.58,0-2.36-.32-1.76-.64-3.52-.95-5.28.31-1.54.35-2.99-1.33-3.85-.12-.96-.25-1.93-.37-2.89.02-.81.04-1.61.06-2.42,0,0,.22.02.22.02,1.76.26,3.02-.4,3.9-1.97.53-.96.17-1.69-.39-2.36-.62-.75-1.22-1.79-2.49-.96-.8-.79-1.61-1.59-2.41-2.38.27-.11.53-.21.87-.34-.64-1.55-1.99-2.1-3.17-2.82-.11-.06-.47.29-.71.45-.29-.09-.58-.17-.88-.26.07-1.03-.45-1.48-1.43-1.31-1.26.22-2.41.68-3.14,1.84-.59.93-1.22,1.83-1.83,2.74-.64.95-1.46,1.41-2.62.95-.76-.3-1.52-.53-2.09.34-.77-.22-1.54-.43-2.32-.65-.94-1.76-2.15-2.16-3.91-1.29-.62-.07-1.24-.13-1.86-.2-1.38-1.82-3.39-2.33-5.72-2.49.17-.82.3-1.49.44-2.16.34.03.68.07,1.01.1.17.1.34.2.51.29.61.02,1.23.03,1.84.05.33,1.31,1.25,1.14,1.93.54.51-.45.64-1.32.95-2,.64.02,1.28.04,1.92.07.36.44.71.87,1.07,1.31.28-.29.57-.57.85-.86.33.03.67.07,1,.1.18.11.35.21.53.32.3.13.61.26.91.4.69,1.87,1.33,2.18,2.91,1.42.46.18.91.35,1.37.53.24.32.49.64.73.96.22-.33.45-.66.67-.99-.32-.73-.64-1.46-.96-2.2.03-1.09-.71-1.07-1.47-1.03-.94-.49-1.88-.98-2.81-1.46-.3-1.4-.6-2.79-.9-4.19-.03-.52-.05-1.04-.08-1.56.71-1.21-.34-.85-.86-.97-.08-.11-.13-.23-.13-.37.01-1.26.1-2.53,0-3.78-.03-.4-.59-.75-.9-1.12.04-.64.07-1.28.11-1.92,1.13-.27,2.29-.47,3.38-.84.83-.28,1.12-.87.3-1.58.02-.63.03-1.27.05-1.9.23-.21.47-.41.7-.62-.41-.1-.82-.21-1.23-.31h0c-.18-.58-.18-1.34-.56-1.73-1.15-1.17-.98-2.18-.05-3.36.43-.55.75-1.24.93-1.92.09-.35-.24-.81-.38-1.21.03-1.59.06-3.17.09-4.76.29-.21.57-.42.86-.64-.31-.27-.62-.54-.93-.8-.67-1.56-1.35-3.12-2.02-4.68.18-.24.53-.48.52-.71-.05-1.33-2.15-3.38-3.5-3.46-.09,0-.2.22-.3.33-1.26-.36-2.52-.72-3.78-1.08-.27-.29-.54-.58-.81-.87-.21.27-.42.54-.63.82-1.61-.27-3.23-.54-4.84-.81.03-1.08.99-1.03,1.64-1.34.76-.37,1.63-.57,2.27-1.07.66-.52.22-.91-.47-1.01-.01-.48-.02-.97-.03-1.45,1.19,0,2.45.12,2.87-1.43,1.12-.27,2.27-.46,3.36-.82,1.42-.46,2.17-1.45,1.89-3.02.26-.28.78-.75.74-.81-1.03-1.44-2.09-2.86-3.26-4.2-.14-.17-.88.18-1.35.3-1.74-1.64-3.48-3.29-5.23-4.93.11-.53.21-1.05.33-1.63-.63-.4-1.21-.77-1.92-1.22-.15.44-.25.73-.34,1.01-.98-.8-1.97-1.59-2.95-2.39.66-.45.54-.92-.08-1.21-.13-.06-.53.46-.8.71-1.81-.84-3.75-1.51-4.87-3.35.53-.89.49-.94-.91-.97h0c-.06-.45-.01-.96-.21-1.33-.3-.55-.78-.74-1.24-.07-.62-.66-1.25-1.33-1.87-1.99l.77-.65c-.44-.24-.88-.49-1.32-.73,0,0,0-.02,0-.02-.3-2.08-1.33-3.6-3.36-4.33-.14-.49-.28-.97-.42-1.46,1.34-.46,2.59-.15,3.8.48-.25,1.89,1.01,2.7,2.43,3.39.56,2.43,2.47,1.58,4.09,1.53.29,1.16.49,2.25.83,3.3.22.67.69,1.15,1.37.34.3.35.6.71.9,1.06.08,1.38.09,1.38.97.94h1.44c.38,0,.76-.01,1.14-.02-.06-.47-.12-.94-.18-1.42,0-.16,0-.32,0-.48.81-.84.47-1.26-.52-1.44-.03-.13-.03-.25,0-.38-.15-.83-.29-1.67-.44-2.5.09-.47.37-1.02.22-1.4-.38-.98-.09-1.78.35-2.6,1.15,1.93,2.3,3.86,3.46,5.79-.87.46-.47,1.07-.15,1.61,2.18,3.6,4.38,7.2,6.59,10.78.29.47.61.95,1.03,1.28.18.14.65-.07.98-.11.44.64.87,1.28,1.31,1.92-.19.22-.38.45-.58.67.23-.06.47-.12.7-.18,1.02,1.72,2.04,3.43,3.06,5.15-.15.17-.47.44-.43.5.69,1.1,1.41,2.18,2.16,3.24,0,0,.34-.22.53-.34.5-.21.9,1.75,1.47.07.82-.01,1.63-.03,2.45-.04Z"/>
    <path class="cls-4" d="m42.36,34.97c-.02.17-.04.35-.07.52-1.12.14-1.78.73-1.85,1.9-1.02,1.07-2.1,2.09-3.05,3.22-.95,1.13-2.08,1.35-3.38.93-1.42-.45-2.81-.98-4.21-1.48-.68-1.25-2-.86-3.05-1.18-1.53-.29-2.56.21-3.13,1.75-.65,1.77-1.42,3.5-2.19,5.23-.39.88-.11,1.53.55,2.09.84.71,1.68,1.44,2.57,2.1.84.61,1.29.11,1.57-.68.29-.22.78-.41.84-.68.38-1.74,1.53-2.88,2.84-3.93.62-.05,1.24-.07,1.86-.16,1.78-.25,3.18.3,4.11,1.89.25,1.28.51,2.56.76,3.85-.17.04-.35.09-.52.13-.13.12-.26.23-.38.35-.92.04-1,.8-1.25,1.42-.54.3-1.08.61-1.62.91,0,0-.11.08-.11.08-.22-.12-.45-.24-.67-.36-.07.27-.13.54-.2.82.29,3.13.27,6.34.95,9.39.87,3.91,2.52,7.6,5.22,10.69.21.37.41.73.62,1.1-.61.72-.79,1.48-.29,2.36.61,1.09,1.16,2.21,1.74,3.32.01.93.23,1.72,1.29,1.95.71,1.87,1.42,3.74,2.13,5.62.11.68.21,1.35.32,2.03.21,1.26-.56,2.87,1.31,3.51.57,1.24,1.62.71,2.53.69,1.12.1,2.24.19,3.36.29.17.09.34.18.51.28.13-.04.24-.1.33-.2,3.17-.09,5.58,1.23,7.64,3.63,2.49,2.9,6.17,3.43,9.66,4.2.86.19,1.94.42,2.55-.7.58-1.06.47-2.99-.34-3.78-.96-.93-2.01-1.78-3.01-2.68-1.54-1.38-3.01-2.85-4.63-4.13-2.57-2.04-3-4.86-2.58-7.73.19-1.33,1.44-2.56,2.35-3.73,1.01-1.3,2.31-1.66,4.03-1.3,1.61.33,3.34.16,5.01.21.19,0,.37.02.56.02,1,.45,2.29.64,2.93,1.39,1.59,1.85,3.49,1.55,5.46,1.29.54-.07,1.06-.31,1.59-.47.19-.11.38-.23.56-.34.86-.55,1.72-1.1,2.56-1.67,2.97-2,4.4-4.87,4.6-8.38.07-1.24.55-2.08,1.75-2.54,1.74-.67,2.23-2.05,2.15-3.81-.06-1.26-.55-1.94-1.85-1.92-.2-.12-.41-.25-.61-.37-2.99-1.27-5.99-2.53-8.97-3.81-1.1-.47-2.15-1.05-3.27-1.45-1.86-.68-2.9-1.87-2.82-3.91-.09-.32-.19-.65-.28-.97-.07-2.15.75-3.72,2.63-4.96,4.44-2.93,8.75-6.05,13.13-9.07.58-.4,1.29-.6,1.94-.89.18-.13.37-.25.55-.38,1.69-.61,3.36-1.26,5.07-1.81.96-.31,1.97-.45,2.96-.66.18-.11.36-.21.55-.32,3.31-.77,5.79,1.25,8.46,2.58.38.19.62.92.69,1.43.28,2.11,1.45,3.6,3.03,4.91,1.6,1.33,2.62,1.47,4.23.24,1.01-.78,1.92-1.67,2.91-2.47.92-.75,1.89-1.45,2.83-2.17.18-.1.36-.2.54-.3,1.39-.2,2.78-.4,4.18-.59.19-.11.38-.22.57-.32,1.25-.25,2.5-.46,3.74-.75,3.3-.76,5.84-2.83,8.28-4.97,1.94-1.7,1.71-3.39-.46-4.89-3.54-2.46-7.03-4.97-10.65-7.31-1.47-.95-2.06-2.06-1.97-3.74.05-.95.03-1.94-.21-2.85-.38-1.47.16-2.55,1.25-3.35,1.86-1.36,3.81-2.59,5.72-3.87.31-.13.62-.25.93-.38,2.41,0,4.82,0,7.22,0,.01.31.02.61.03.92.31.29.62.59.94.88.31.03.62.07.93.1.5.1,1.01.2,1.51.3,1.43.03,2.85.06,4.28.09.79.71,1.59.67,2.4.05,2.55.03,5.09.06,7.64.1.5.09,1.01.18,1.51.27.8.01,1.6.06,2.4.04,2.46-.08,4.81.12,6.5,2.26.14.17.4.26.62.34.21.08.45.1.77.17.97-2.02-1.35-3.76-.38-6.02.72.15,1.58.1,2.12.5,1.09.79,2.07,1.75,2.98,2.75,1.23,1.35,1.01,1.86-.97,2.5-.21.13-.42.26-.63.39,0,.17.01.35.02.52,1.2,3.82,2.72,5.05,6.53,5.27.55.03,1.1.07,1.65.11,1.28.58,2.55.66,3.81-.08,0-.17,0-.34,0-.51.19-2.28.6-2.63,2.77-2.25.94.16,1.85.45,2.79.65,2.02.43,2.39.27,3.54-1.47.09-.13.17-.27.26-.4.98-1.45,1.1-1.48,2.66-.86,1.38.55,1.75.4,2.39-.93.14-.29.25-.58.37-.88q1.48-3.93-1.84-6.55c-.58-.46-1.11-.98-1.74-1.54,1.08-1.11,2.09-.83,2.87-.43,1.48.76,2.87,1.71,4.26,2.64.92.62,1.08,1.45.57,2.5-.75,1.55-1.39,3.15-2.07,4.73-.07.23-.15.46-.22.69.24-.05.47-.1.71-.15,1.38-.56,2.75-1.19,4.16-1.67,2.01-.69,3.35-.08,4.53,2.11-.8.45-1.6.92-2.4,1.37-3.63,2.03-7.46,3.47-11.61,3.99-.15-.06-.29-.05-.43.02-.98.15-1.96.3-2.94.45-.63.13-1.26.25-1.89.38-3.24.36-6.49.73-9.73,1.07-1.58.17-3.17.26-4.76.42-1.44.14-2.62-.33-3.77-1.18-2.11-1.57-4.31-3.03-6.49-4.5-.45-.31-1.01-.47-1.51-.7-.53-.44-1.07-.89-1.6-1.33-.17.12-.34.24-.5.36.18.51.37,1.02.55,1.54.16.8.31,1.6.47,2.4-.51.01-1.02.02-1.53.03-1.33-1.26-2.69-2.49-3.99-3.78-1.42-1.4-2.97-2.17-5.08-2.1-4.95.16-9.9.09-14.85.11-.5-.6-.98-.61-1.44.04-1.5.14-3.02.19-4.5.45-2.02.35-2.97,2.26-2.07,4.11.73,1.5,1.64,2.91,2.41,4.4.7,1.35,2.02,1.41,3.25,1.69.17.1.34.2.52.3.96.07,1.92.15,2.88.22.43,0,.87-.02,1.3-.02.81-.22,1.62-.44,2.43-.66.16-.11.32-.22.47-.32.33-.07.66-.14.98-.21.02.37.04.74.05,1.11-.33.44-.67.89-1,1.33-.14.16-.29.33-.43.49.1,2.06.11,4.12.33,6.16.19,1.78-.02,3.29-1.58,4.43-2.54,1.86-4.84,3.95-8.22,4.46-3.11.47-6.14,1.51-9.16,2.45-1.18.37-2.31,1.02-3.31,1.75-1.79,1.31-3.43,2.82-5.19,4.17-.48.37-1.14.49-1.72.73-.96,0-1.92,0-2.88.01-.62-.46-1.28-.88-1.85-1.4-.34-.31-.6-.74-.8-1.17-1.6-3.43-4.58-4.75-8.07-5.32-.45-.07-.86-.35-1.3-.53-.15,0-.3,0-.45,0-1.46-1.05-2.75-.98-4.36.01-5.91,3.62-11.72,7.45-18.21,10.03-.21.08-.36.31-.54.46-.59.19-1.09.41-.47,1.11-.06,2.26.87,3.69,3.16,4.37,2.58.77,5.21,1.57,7.58,2.81,2.06,1.08,3.8,2.8,5.67,4.25.06.05.12.12.13.19.61,3.7,2.33,7.39.21,11.13-.39.68-.85,1.37-1.41,1.91-2.81,2.71-5.61,5.43-8.51,8.04-1.75,1.57-4.06,1.09-6.16,1.19-1.17.06-2.36-.29-3.54-.45-.16-.11-.33-.23-.49-.35-1.75-.74-3.52-1.42-5.23-2.22-1.93-.9-2.65-.84-3.94.73-1.06,1.3-2.08,2.62-3.09,3.96-.98,1.3-.85,1.89.43,3.04,2.62,2.36,5.52,4.24,8.86,5.47,1.02.38,1.99,1.01,2.82,1.72.37.32.35,1.1.51,1.67-.66.16-.99.41-.28.97-.03.79.04,1.61-.14,2.38-.15.66-.43,1.47-.93,1.85-2.17,1.63-4.41,3.24-7.4,2.12-.21-.08-.47,0-.71.01-.14-.08-.28-.09-.43-.05-.48-.04-.97-.07-1.45-.11-.48-.11-.97-.21-1.45-.32-3.69.31-6.19-2.05-8.48-4.25-2.25-2.16-4.51-1.86-7.06-1.33-1.32.27-2.65.48-3.98.63-.97.11-1.82-.14-2.65-.81-1.42-1.13-2.86-1.05-3.96.41-1.08,1.43-1.8,3.13-2.68,4.72,0,.33,0,.65,0,.98.9,4.72,2.49,9.02,6.74,11.86,1.47.98,2.48,2.45,3.13,4.13,1.09,2.82,2.21,5.62,3.28,8.45.66,1.76.39,2.57-1.01,3.76-.73.61-1.41,1.28-2.11,1.92-.76.38-1.52.75-2.28,1.13-.6-.18-1.2-.35-1.86-.55.21-.68.51-1.34.59-2.03.03-.26-.46-.58-.72-.87.11-3.19.3-6.38-.85-9.46-1.15-3.09-2.6-5.89-5.6-7.71-8.85-5.38-17.65-10.84-26.42-16.35-.96-.6-1.76-1.58-2.4-2.53-.56-.84-.84-1.89-1.15-2.87-1.58-5-3.2-10-4.64-15.05-.28-.96-.03-2.22.35-3.2.64-1.62,1.62-3.11,2.42-4.67.84-1.64.54-2.56-1.05-3.38v-.14c-.13-.12-.27-.24-.4-.36-.66-.33-1.32-.66-1.98-.98-.2-1.38.1-2.58.72-3.88,1.74-3.66,3.34-7.4,4.79-11.19.94-2.46,2.34-4.4,4.4-6.06,2.23-1.79,4.26-3.83,6.27-5.87,1.87-1.9,1.52-3.05-1.03-3.9-.45-.15-.91-.28-1.45-.44-.55-1.32-.69-2.64-.46-4.13.26-1.64.18-3.34.1-5.01-.03-.67-.3-1.43-.7-1.96-1.2-1.58-2.52-3.08-3.81-4.59-2.17-2.53-3.89-5.21-3.51-8.79.08-.73-.3-1.54-.59-2.26-.41-1.02-1.06-1.91-.61-3.16.14-.4-.34-1.17-.74-1.57-.55-.56-1.34-.87-1.93-1.39-.43-.39-.7-.96-1.04-1.45.18-.15.35-.3.53-.45.95-.03,1.91-.07,2.86-.1.74.67,1.43.93,1.95-.24C6.6.1,7.39,0,8.18,0,18.87,0,29.56,0,40.25,0c.7,0,1.4.07,2.31.12.09.94.14,1.79.27,2.63.49,3.14,1.17,6.25,1.47,9.41.41,4.19.62,8.4.72,12.6.03,1.3-.54,2.63-.84,3.94-.11.16-.23.32-.34.48-.34,1.46-.68,2.91-1.01,4.37-.16.47-.32.94-.48,1.42Z"/>
    <path class="cls-4" d="m155.57,463.27c-.35,1.6-.7,3.21-1.06,4.81.15.98.81.92,1.53.76.96.54,1.53,1.25,1.49,2.46-.11,2.92-.13,5.84-.18,8.76-1.66.08-1.69-1.4-2.18-2.37-.92-1.81-1.7-3.68-2.61-5.49-.32-.64-.86-.99-1.4-.12-.45-.05-.89-.09-1.34-.14-.1-.28-.2-.57-.33-.96-1.11.48-2.11.9-3.35,1.44-.55-.75-1.22-1.43-1.59-2.24-.65-1.42-1.12-2.91-1.65-4.38-.29-.81-.44-1.76-1.67-1.57-.04-.32-.08-.64-.12-.96.26-.12.53-.22.78-.36.02-.01-.08-.25-.12-.38l-.71.41c-.15-.52-.29-1.05-.44-1.57,1.48-.73,1.81-2.35,3.02-3.52-.54-.18-.83-.27-1.12-.37.04-1.6.42-3.26-1.42-4.3-.61-.35-.47-1.08.05-1.6,1.29.15,1.33.11,1.11-.81v-1.86h5.84c.13-1.37.23-2.52.34-3.67,2.91.48,4.44,2.78,3.96,5.34-.49,2.65-1.89,5.1-1.66,7.9.29.55.58.49.86,0,.53-.47,1.07-.93,1.6-1.4.59.15,1.18.3,1.77.45.09.32.19.63.28.95.1.32.2.64.3.96,0,.96,0,1.92,0,2.88-.25.12-.5.25-.76.37.25.2.5.39.76.59Z"/>
    <path class="cls-6" d="m38.57,74.85c-.21-.37-.41-.73-.62-1.1,2.32-2.07,4.65-4.11,6.94-6.22.64-.59,1.08-1.37,1.67-2.02.66-.73.69-1.59.03-2.14-2.33-1.94-1.95-4.51-1.83-7.04.02-.39-.05-.79-.08-1.11-.17-.18-.26-.33-.39-.4-2.37-1.17-2.58-1.69-.89-3.62,1.99-2.26,3.54-4.91,6.16-6.62.81-.52,1.29-1.6,1.82-2.48.54-.88.96-1.84,1.44-2.76,1.01-1.93,1.58-3.8,1.09-6.13-1-4.82-1.63-9.71-2.37-14.58-.19-1.26-.23-2.54-.34-3.81-.08-.33-.16-.65-.25-.98-.03-1.22.37-2.03,1.78-1.95,1.34.08,1.95.65,1.99,2.14.07,2.55.05,5.11.06,7.66.01,2.33.47,4.45,1.53,6.63,1.87,3.87,1.95,8.02.06,11.99-.64,1.34-1.65,2.53-2.58,3.71-.91,1.15-1.17,2.42-.95,3.81.3,1.91-.33,3.4-1.84,4.6-1,.79-1.83,1.81-2.86,2.53-.92.64-1.13,1.42-1.18,2.43-.09,2.13.11,4.03,1.93,5.6.81.7,1.14,2.01,1.56,3.09.58,1.48,1.06,2.99,1.55,4.51.16.49.22,1.02.33,1.6-1.18.06-1.48-.75-1.95-1.35-1.37-1.72-2.15-1.89-4.07-.72-2.31,1.41-4.58,2.89-6.88,4.32-.26.17-.58.25-.87.38Z"/>
    <path class="cls-6" d="m108.1,414.78c-.02-1.78-.05-3.56-.07-5.34,1.9,2.42,3.89,4.77,5.66,7.27,1.18,1.66,2.06,3.53,3.08,5.31.12.32.25.64.38.96.38,1.85.95,3.69,1.08,5.55.19,2.67,1.07,5.19,1.49,7.81.27,1.7,1.44,3.28,2.29,4.87.37.69.94,1.27,1.42,1.91-.95.03-1.01.68-.97,1.4-.98-1.41-2.13-2.73-2.89-4.24-2.1-4.14-2.91-8.72-3.78-13.21-1.01-5.17-4.11-8.82-7.68-12.28Z"/>
    <path class="cls-2" d="m137.91,467.54c-.82.01-1.63.03-2.45.04-.33-.64-.66-1.27-.99-1.91-.02-.3-.03-.6-.05-.9-.09-.88-.23-1.73-1.28-1.99-.19-.5-.39-1.01-.58-1.51-.4-3.21-2.23-5.77-3.83-8.43-.06-.1-.29-.1-.44-.14-.18-.34-.35-.68-.53-1.02.01-.99-.27-1.76-1.43-1.86l-.02-.02c.02-.99-.23-1.78-1.39-1.9-.6-.8-1.19-1.59-1.79-2.39.43-.35.87-.7,1.3-1.05,4.3,3.79,7.32,8.45,9.46,13.74,1.27,3.14,2.68,6.23,4.03,9.35Z"/>
    <path class="cls-2" d="m45.17,241.16c2,1.63,4.07,3.18,6,4.9,2.83,2.53,5.53,5.21,8.33,7.77.62.57,1.43.92,2.2,1.4,1.71-1.54,1.25-3.23.79-4.91.47-.16.93-.32,1.4-.49,2.23,3.57,4.27,7.2,5.49,11.29.7,2.34,1.92,4.53,3.69,6.31,1.8,1.81,3.7,3.53,5.4,5.41,1.59,1.76,3.03,3.66,4.45,5.55.73.98.66,1.03,3.09,1.57.64-.75.35-1.59.12-2.41-.42-1.52-.23-2.83,1.2-3.75.2,0,.4,0,.59,0,.15,6.34.27,12.69.46,19.03.03,1.18.29,2.35.45,3.53-.09,2.61,1.6,4.59,2.49,6.84.87,2.21,2.14,4.27,2.9,6.51.68,1.98,1.94,2.5,3.79,2.45,1.18-.03,2.41-.11,3.31.94,0,.48-.01.95-.02,1.43-1.65-.27-3.29-.56-4.94-.8-1.87-.27-2.84.43-3.18,2.35-.81,4.62-1.55,9.25-2.38,13.87-.41,2.27-.97,4.51-1.49,6.75-.13.54-.3,1.1-.59,1.55-3.93,6.13-5.54,12.96-6.14,20.1-.13,1.5-.33,3-.45,4.51-.36,4.25.22,8.42,1.07,12.57.74,3.66,1.47,7.32,2.29,10.96.18.82.57,1.67,1.08,2.35,3.18,4.18,6.44,8.3,9.64,12.47,3.19,4.17,6.32,8.39,9.54,12.54.39.5,1.12.74,1.69,1.11,1.34,2.67,2.7,5.33,4.02,8.01.35.7.63,1.45.84,2.2.36,1.29.63,2.61.95,3.91.69,2.75,1.38,5.49,2.08,8.23-.43.82-.73,1.62-.35,2.6.15.38-.13.93-.22,1.4-.26,0-.52,0-.78,0-1.26-4.69-3.69-8.84-6.26-12.86-2.87-4.49-6.11-8.75-9.16-13.12-1.24-1.78-3.19-2.58-4.94-3.67-.14-.4-.29-.8-.43-1.2,1.01-.01,1.51-.59,1.39-1.52-.45-3.36-.58-6.83-3.95-8.99-2.07-1.32-4.05-2.81-5.91-4.42-1.7-1.48-3.56-1.99-5.72-1.77-.71.07-1.43.05-2.15.08-.49-.59-.97-.59-1.45.01-.71-.48-1.55-.85-2.1-1.47-1.8-2.02-3.51-4.13-5.24-6.2-.8-.96-.96-1.96-.29-3.09.28-.47.44-1.02.61-1.55.61-1.89.54-2.21-1.18-3.34-2.34-1.52-4.74-2.96-7.08-4.46-.57-.37-1.05-.89-1.58-1.34.02-.2.05-.4.07-.59.85-.19,1.73-.32,2.56-.58,1.3-.41,1.57-1.14.93-2.37-.18-.35-.47-.65-.65-1-.61-1.19-.36-1.95.8-2.85.95-.74,1.58-.22,2.28.41,2.11,1.9,2.25,2.51,1.19,5.19-.4,1.01-1.25,2.17-.28,3.11,1.12,1.08,2.52,1.87,3.87,2.67.18.1,1.08-.48,1.14-.83.13-.75-.03-1.57-.13-2.35-.22-1.65-.56-3.29-.67-4.94-.05-.75.21-1.57.51-2.28,1.51-3.58,3.12-7.12,4.6-10.71,1.78-4.3,2.81-8.71,2.68-13.45-.13-5.08.15-10.19.43-15.27.18-3.32.69-6.63,1.06-9.94.21-.16.42-.32.63-.48-.21-.16-.42-.32-.63-.48-.05-1.59-.07-3.19-.16-4.78-.15-2.54-.12-5.11-.58-7.6-.56-3.03-2.29-5.64-4.32-7.86-.93-1.02-2.68-1.3-4.09-1.86-1.11-.44-1.56-1.2-1.62-2.38-.05-1.19.25-2.02,1.49-2.34.46-.12.92-.28,1.34-.51,1.77-.97,2.22-3.01,1.05-4.6-.32-.44-.84-.88-.88-1.35-.11-1.5-1.17-2.27-2.2-2.95-1.23-.8-1.95-1.84-2.3-3.21-.78-3.15-1.69-6.28-2.3-9.46-.49-2.53-1.81-4.52-3.31-6.5-4.69-6.17-10.09-11.7-15.67-17.05-.28-.27-.5-.61-.75-.92.18-.34.36-.69.54-1.03Z"/>
    <path class="cls-2" d="m35.05,135.61c-2.17,3.44-2.74,7.41-3.93,11.4,1.34.13,1.99-.4,2.55-1.22,1.1-1.61,2.23-3.2,3.35-4.8,1.59-2.57,3.18-5.13,4.77-7.7.26.29.75.61.72.87-.08.69-.38,1.35-.59,2.03.66.19,1.26.37,1.86.55-1.14,2.21-2.27,4.41-3.41,6.62-1.31,1-1.63,2.54-1.84,3.97-.48,3.29-.7,6.63-1.02,9.94-.05.48-.04.96-.06,1.44-.46,0-.93,0-1.39,0-.36-.38-.73-.77-1.2-1.27-.94,2.24-1.82,4.35-2.7,6.46-.81.57-1.74.95-2.03,2.1-.1.38-.8.61-1.22.91-.19-.19-.39-.39-.58-.58.03-2.93.12-5.87.07-8.8-.04-2.12.56-3.85,2.23-5.23.69-.57,1.76-1.12,1.44-2.26-.35-1.24-1.58-.71-2.43-.96-.47-.14-.85-.6-1.26-.91-.01-.48-.03-.97-.04-1.45,0-3.83,0-7.66,0-11.49.01-1.12.02-2.24.04-3.36.04-3.26.85-4.38,3.99-5.04.92-.2,1.96.15,2.9.24.87,3.07-.43,5.79-.22,8.56Z"/>
    <path class="cls-3" d="m33.14,182.69c-.32-.42-.64-.83-.96-1.25,0-.22.01-.45.02-.67.16-.28.32-.55.48-.83,1.57-.72,3.15-1.44,4.96-2.27.69,1.75,1.22,3.4,1.98,4.94,1.28,2.54,2.75,4.99,4.06,7.51,1.24,2.4,2.46,4.83,3.54,7.3.67,1.54.49,2.95-.69,4.41-4.74,5.83-8.56,12.27-12.22,18.81-.43.77-.76,1.89-.54,2.68.93,3.37,1.98,6.71,3.2,9.99.42,1.13,1.46,2.02,2.24,3.02.53.68,1.08,1.34,1.62,2.01-1.64.41-2.59-.86-3.74-1.59-1.1-.7-1.96-1.85-3.46-1.78,0,0,0,0,0,0-.31-.34-.63-.68-.94-1.01-.81-1.05-2.05-2-2.35-3.18-1.01-3.98-1.66-8.04-2.5-12.06-.42-2-.51-4.26-1.54-5.91-1.45-2.32-3.57-4.24-5.53-6.21-.96-.96-2.23-1.48-3.69-1.37-1.09.08-2.18.02-3.35.02v-3.76q4.1,1.35,5.91.83c.19.18.37.36.56.54.06,1.26.9,1.56,1.93,1.44.91-.11,1.81-.37,2.71-.56.19.02.37.05.56.07.01.16.02.31.04.47-.25.75-1.01,1.65.52,1.91h0c.16.16.32.32.48.48h0c.16.16.32.32.48.48h0c.16.16.32.32.48.48h0c.16.16.32.32.48.48h0c-.25,1.45.59,2.42,1.49,3.35l.84,1.08c.38.74.76,1.49,1.21,2.37.64-.51,1.06-.85,1.48-1.19.81-1.9,2.38-3.14,3.84-4.48,2.3-2.62,4.63-5.21,6.87-7.88.79-.94.73-2.09.11-3.14-.95-1.63-2.06-3.14-2.37-5.12-.11-.69-1.02-1.35-1.7-1.85-.69-.51-1.53-.86-2.33-1.2-.92-.4-1.39-1.03-1.28-2.04.27-2.46-1.02-4.06-2.93-5.32Z"/>
    <path class="cls-6" d="m82.13,406.28c-3.46-1.29-6.62-5.32-6.54-8.37,2.98-.83,3.91-.36,4.8,2.38.58,1.8,1.21,3.59,1.82,5.38-.02.2-.05.41-.07.61Z"/>
    <path class="cls-3" d="m57.62,371.69c-2.96-1.81-4.78-4.72-7.32-7.24,1.19-.71,1.98-.55,2.85.03,2.6,1.71,4.23,4,4.53,7.15,0,0-.05.06-.05.06Z"/>
    <path class="cls-6" d="m69.2,175.02c.74,3.52.52,6.92-1.26,10.14-1.72,3.12-3.99,5.82-6.74,8.02-1.52,1.21-3.44,1.94-5.25,2.92-.83,4.05-.79,8.27-.66,12.49.09,2.95,1.83,5.24,3.45,7.49,1.76,2.45,3.72,4.78,5.66,7.1,1.35,1.62,2.85,3.09,5.27,2.7.29-.05.56-.21,1.1-.42-.56-1.06-1.06-2-1.52-2.87.12-.28.15-.47.26-.55,2.73-2.14,3.11-2.07,4.74,1.02,2.01,3.82,3.95,7.66,5.98,11.47,2.21,4.14,3.25,8.6,3.88,13.21.58,4.27,1.02,8.54.92,12.85-.04,1.48.52,2.62,1.6,3.57,2.57,2.26,2.34,5.23,2.03,8.2-.02.2-.41.35-.99.81-.11-1.02-.22-1.67-.25-2.33-.05-1.04.04-2.09-.1-3.11-.13-.97-.55-1.91-1.61-2.19-1.75-.46-2.1-1.74-2.11-3.27-.01-2.4-.08-4.8.02-7.19.08-2-.33-3.82-1.57-5.38-1.47-1.85-1.88-3.92-1.87-6.25.02-4.92,1-5.54-4.31-8.86-1.08-.67-1.87-1.64-2.07-3.07-.13-1-.64-1.97-1.1-2.89-.68-1.35-1.94-1.98-3.1-1.71-1.25.29-2.21,1.29-2.29,2.76-.1,1.83-.29,3.73.06,5.5.85,4.28,1.99,8.51,3.01,12.75.24.97.51,1.93.77,2.91-2.07.43-2.18.44-2.47-.97-.69-3.35-1.23-6.72-1.93-10.07-.64-3.03-1.24-6.09-2.18-9.04-.51-1.62-1.45-3.22-2.57-4.51-3.27-3.8-5.64-8.1-7.54-12.68-.57-1.38-.98-2.91-1.05-4.39-.2-4.04-1.05-8.06-.19-12.15.32-1.52.05-3.16.44-4.88.43.67.86,1.34,1.32,2.06,2.1-.4,3.26-1.71,3.86-3.54.14-.43-.06-1.1-.32-1.52-.55-.87-1.21-1.68-1.91-2.44-2.1-2.29-4.2-4.58-6.36-6.8-.82-.84-.92-1.64-.28-2.55,1.47-2.06,2.98-4.11,4.55-6.26.45.32.83.44.91.67,1.01,2.76,2.03,5.5,2.29,8.5.23,2.73.38,5.55,1.91,8.01.32-.04.62.01.77-.11,3.09-2.59,5.78-5.53,7.43-9.24.53-1.2.59-2.61.86-3.92.16,0,.33,0,.49,0Z"/>
    <path class="cls-5" d="m69.2,175.02c-.16,0-.33,0-.49,0-1.53-.67-3.05-1.38-4.59-2.01-2-.82-2.05-2.18-1.11-3.87.42-.74.88-1.46,1.46-2.41-1.02-.19-1.76-.32-2.83-.52,2.07-1.76,4.66-2.66,6-5.08-1.41-2.26-3.75-1.11-6.09-1.66.85-.35,1.34-.59,1.86-.76,1.84-.6,2.48-1.39,2.41-3.3-.05-1.2-.27-2.39-.42-3.59.17-.04.33-.09.5-.13.19.38.44.73.56,1.13.95,3.19,2.27,6.34,2.72,9.61.48,3.5.13,7.12.12,10.68,0,.64-.06,1.27-.09,1.91Z"/>
    <path class="cls-3" d="m63.89,249.83c-.47.16-.93.32-1.4.49-.62-1-1.16-2.07-1.88-3-3.07-3.94-6.21-7.83-9.3-11.77-.57-.72-.98-1.56-1.49-2.36,2.38-1.08,3.49-.92,4.69.92,2.48,3.79,4.87,7.64,7.23,11.5.82,1.35,1.44,2.81,2.15,4.22Z"/>
    <path class="cls-5" d="m28.32,166.32c.19.19.38.39.58.58-.59.51-1.11,1.17-1.8,1.52-2.23,1.13-4.2.45-4.99-1.93-1.07-3.24-1.92-6.55-2.77-9.85-.23-.91-.2-1.88.57-2.69,1.41-1.5,2.75-3.06,4.21-4.7.92.41,1.43.97,1.02,2.17-.46,1.35-.68,2.79-1.16,4.14-.57,1.61-.49,3.16.15,4.67.75,1.75,1.62,3.46,2.46,5.16.34.68.84,1.18,1.72.93Z"/>
    <path class="cls-5" d="m8.19,200.48q-1.97-.24-1.73-2.55c2.92-.89,4.91-.21,6.8,2.53-1.31,0-2.45,0-3.6,0-.49,0-.98.01-1.47.02Z"/>
    <path class="cls-1" d="m8.19,200.48c.49,0,.98-.01,1.47-.02-.01.15-.02.31-.01.46,0,0,0,0,0,0-.49-.15-.97-.29-1.46-.44Z"/>
  </g>
</svg>