<?xml version="1.0" encoding="UTF-8"?>
<svg id="_Слой_2" data-name="Слой 2" xmlns="http://www.w3.org/2000/svg" viewBox="0 0 126.86 71.67">
  <defs>
    <style>
      .cls-1 {
        fill: #f4a06d;
      }
    </style>
  </defs>
  <g id="_Слой_1-2" data-name="Слой 1">
    <path class="cls-1" d="m126.41,45.87c.15.41.3.83.45,1.24-1.87.66-2.03.68-1.83,2.43.24,2.09-.36,3.7-1.76,5.21-1.24,1.34-2.26,2.88-3.46,4.26-1.25,1.44-1.78,3-1.17,4.84.55,1.65-.01,2.95-1.16,4.12-1.17,1.19-2.3,2.43-3.44,3.64-1.69.18-3.2-.16-4.79-.88-2.76-1.24-5.7-2.06-8.54-3.13-1.02-.38-1.9-.24-2.71.37-1.33,1-2.62,2.08-4.07,3.23-1.98-.73-3.3-2.51-4.94-3.83-3.29-2.66-6.52-5.38-9.7-8.17-1.64-1.44-3.36-1.58-5.33-.93-1.57.52-3.17.96-4.79,1.32-.74.16-1.54.03-2.38.03-.4-1.67-.92-3.18-1.1-4.72-.17-1.42-.87-2.1-2.13-2.53-3.33-1.12-6.62-2.36-9.96-3.44-4.86-1.57-9.74-3.08-14.63-4.55-1.59-.48-3.26-.72-4.86-1.2-4.64-1.39-9.24-2.93-13.91-4.23-2.92-.82-5.96-.88-8.98-.59-2.62.26-5.24.51-7.86.73-.77.06-1.55,0-2.37,0C.15,35.84.06,32.74,0,29.65c-.04-1.83.17-3.66.29-5.49.44-6.36.89-12.72,1.33-19.07.11-1.57.2-3.13.32-5.09.77.55,1.23.79,1.59,1.14,2.73,2.7,5.41,5.44,8.16,8.11,1.03.99,2.16,1.9,3.35,2.68.62.41,1.46.62,2.22.69,4.29.42,8.58.74,12.86,1.17,2.27.23,2.45.22,3.53-1.86,1.57-3.05,3.14-6.11,4.65-9.19.69-1.41,1.51-2.23,3.27-2.23,3.75,0,7.5-.21,11.24-.43,1.52-.09,2.4.64,3.08,1.82.8,1.38,1.54,2.8,2.41,4.14,1.02,1.57,1.72,1.75,3.41,1.03,1.03-.44,2-.99,3.03-1.44.65-.28,1.51-.65,1.9.2.25.55.13,1.36-.05,1.99-.17.59-.71,1.06-.96,1.64-.22.49-.5,1.13-.36,1.57.52,1.61,2.11,2.06,3.42,2.76,1.08.58,2.01.16,2.78-.69.91-1.01,1.78-2.04,2.7-3.05.26-.29.6-.5,1.12-.92.32.65.65,1.14.82,1.69.77,2.5,1.33,2.92,3.93,2.74,1.11-.08,2.21-.33,3.33-.37.73-.02,1.47.19,2.36.33-.5,1.99-.95,3.67-1.33,5.35-.51,2.19.14,2.98,2.38,2.92.71-.02,1.42-.18,2.13-.27.7-.09,1.4-.18,2.05-.27.44.73.79,1.32,1.14,1.91.04,2.51-.4,5.07.73,7.58,4.67.29,9.32.41,13.85,1.16.27,1.71.5,3.19.73,4.66,0,1.47,0,2.93,0,4.4-.03.32-.1.63-.09.95.08,2.16.85,2.79,2.84,2.09,1.1-.38,2.16-1,3.11-1.69,1.19-.86,2.47-1.16,3.83-.88,1.93.4,3.84.89,5.71,1.51.79.26,1.47.89,2.14,1.43.55.44,1,.99,1.5,1.49Z"/>
  </g>
</svg>