<?xml version="1.0" encoding="UTF-8"?>
<svg id="_Слой_2" data-name="Слой 2" xmlns="http://www.w3.org/2000/svg" viewBox="0 0 109.94 113.12">
  <defs>
    <style>
      .cls-1 {
        fill: #f7b489;
      }
    </style>
  </defs>
  <g id="_Слой_1-2" data-name="Слой 1">
    <path class="cls-1" d="m16.78,87.23c3.53-4.41,7.1-8.8,10.59-13.24,1.33-1.69,2.52-3.49,3.74-5.26.86-1.24.42-2.17-1.14-2.15-1.34.02-2.68.34-4.01.55-.39.06-.77.22-1.15.31-1.16.25-1.93-.11-2.51-1.23-2.1-4.03-4.33-7.99-6.44-12.01-4.31-8.19-8.58-16.41-12.88-24.6-.74-1.41-1.49-2.82-2.31-4.19-1.06-1.76-.79-3.46.46-4.87,1.63-1.83,3.49-3.45,5.26-5.16,3.26-3.16,6.71-6.17,9.71-9.56,1.29-1.45,1.67-3.7,2.56-5.81.29.05.82.07,1.31.22,10.62,3.16,21.24,6.3,31.84,9.52,3.12.95,6.18,2.13,9.27,3.19,1.16.4,1.83,1.03,1.92,2.39.07,1.17.47,2.34.86,3.47.66,1.89,1.54,2.29,3.47,1.72,1.83-.54,3.67-1.07,5.48-1.68,1.44-.49,2.67-.22,3.79.75,4.77,4.1,9.54,8.21,14.31,12.31.72.62,1.44,1.26,2.22,1.82,4.28,3.05,6.75,7.8,10.63,11.25.95.84,1.49,2.26,1.94,3.51,1.43,3.97,2.74,7.98,4.08,11.98.1.28.08.6.18,1.38-.75-.64-1.23-.96-1.6-1.38-.53-.59-1.07-1.21-1.44-1.9-1.6-3.03-4.09-3.84-7.38-3.54-2.42.22-4.05,1.86-4.44,4.21-.21,1.26-.36,2.52-.51,3.79-.18,1.5.24,2.82,1.13,4.04,1.32,1.8,2.62,3.62,3.87,5.46.35.51.5,1.16.73,1.74-.16.15-.33.3-.49.45-2.86-.16-5.73-.2-8.57-.51-2.38-.25-3.77.68-4.59,2.83-1.07,2.83-2.26,5.61-3.3,8.45-1.17,3.2-3.78,5.04-6.4,6.83-.88.6-1.98.33-2.89-.41-.92-.76-1.9-1.45-2.87-2.15-.96-.69-1.98-.71-2.86.05-.95.83-1.91,1.72-2.62,2.75-.87,1.27-.38,2.13,1.15,2.25,1.16.09,2.34.02,3.5.02.01,3.45-1.52,5.23-4.48,5.25-2.3.01-4.6-.33-6.91-.39-4.13-.1-4.21.05-3.45,4.14.01.07-.03.16-.08.4-.82.2-1.72.46-2.63.64-2.39.47-2.39.45-2.93,2.95-.32.16-.64.32-.96.48-.27-.39-.56-.77-.81-1.18-.58-.96-1.43-.96-2.29-.57-2.97,1.34-5.42,3.24-6.51,6.48-.96.36-1.42-.25-1.95-.9-3.43-4.23-6.93-8.41-10.32-12.68-.73-.92-1.46-1.37-2.6-1.22-.37.02-.74.04-1.1.07-1.05-2.98-2.82-5.46-5.14-7.59-.52-.48-.96-1.04-1.44-1.57,0-.63.02-1.26.02-1.89Z"/>
  </g>
</svg>