<?xml version="1.0" encoding="UTF-8"?>
<svg id="_Слой_2" data-name="Слой 2" xmlns="http://www.w3.org/2000/svg" viewBox="0 0 1442.2 82.2">
  <defs>
    <style>
      .cls-1 {
        stroke: #000;
        stroke-miterlimit: 10;
      }
    </style>
  </defs>
  <g id="_Слой_1-2" data-name="Слой 1">
    <path class="cls-1" d="m2.71.5h1439v49.11c-3.59,1.98-7.9,4.16-10.01,7.22-1.38-3.48-3.78-6.71-6.95-9.33-.75-.62-1.57-1.22-2.6-1.49-3.49-.9-6.34,2.51-6.81,5.43s-.2,6.3-2.93,8.26c-3.74-3.49-8.27-5.97-12-9.45-8.31.97-14.9,7.68-14.13,14.37-7.11-1.55-12.73-6.78-13.59-12.64-5.52,5.33-11.04,10.65-16.56,15.98-.42-6.92-5.3-13.58-12.66-17.23.5,7.16-2.79,14.44-8.9,19.69-5.15-4.1-10.31-8.2-15.46-12.29-7.75,8.37-18.25,15.09-30.15,19.3-4.47-3.29-7.16-8.09-7.27-12.95-6.88.98-13.07,4.68-16.2,9.69-4.78-6.31-9.86-12.85-17.73-16.69s-19.4-3.94-25.22,1.78c-.31-5.22-7.19-9.53-13.59-8.51s-10.71,7.09-8.53,12.01c-7.13.06-14.09-3.59-16.86-8.85-4.22,3.94-6.37,9.27-5.82,14.45-7.76-.89-14.78-5.13-17.97-10.86-1.55,4.61-3.1,9.22-4.65,13.83-3.48-5.51-7.64-11.51-14.94-13.51s-17.25,3.65-14.11,9.3c-7.97-3.67-15.93-7.34-23.9-11.02-3.13,8.53-20.99,9.6-25.68,1.54,2.56,3.48-4.33,7.38-8.89,5.64s-6.38-6.07-7.76-9.95c-1.29,5.62-5.25,10.81-10.9,14.29-5.08-2-9.17-5.58-11.21-9.82-2.86,3.68-5.72,7.36-8.58,11.03-5.78-5.35-19.47-9.18-20.61-2.16-4.72-4.4-9.44-8.8-14.16-13.2-5.62.3-11.03,2.66-14.38,6.29-5.36-4.5-11.87-8.12-19.02-10.57-5.49,5.08-9.38,11.26-11.25,17.81-8.06,1.53-17.12-2.97-19-9.42-9.92,1.16-19.16,5.69-24.95,12.24-17.39-7.47-40.9-4.21-54.15,7.5-7.51-5.9-15.02-11.81-22.53-17.71-3.81,7.3-7.62,14.6-11.43,21.91-8.83-5.37-15.11-13.37-17.33-22.07-.22,7.55-3.92,15.01-10.22,20.63-6.63-8.55-13.25-17.1-19.88-25.64-9.18,1.92-15.83,9.71-14.71,17.26-8.84-4.98-16.32-11.51-21.76-18.99-4.04,3.19-10.85,3.82-15.69,1.45-3.16,3.35-3.93,8.05-1.96,11.94-12.02.2-22.71-9.52-20.95-19.05-.03,9.21-8.73,17.94-19.93,20.01-10-17.46-25.88-32.73-45.51-43.76,2.21,10.52,4.41,21.38,1.29,31.75s-12.99,20.21-26.2,21.54-27.27-9.34-23.07-19.46c5.49,4.82,10.3-6.39,6.69-12.24-17.07,2.87-31.4,14.32-35.03,27.99-4.03-8.7-8.06-17.39-12.09-26.09,3.7,8.68.66,18.95-7.51,25.37-4.92-7.77-9.85-15.54-14.77-23.31-1.81,6.89-3.63,13.79-5.44,20.68-5.44-4.63-9.37-10.37-11.33-16.53-3.38,2.52-6.76,5.05-10.14,7.57-1.57-5.99-3.15-11.99-4.72-17.98-8.27,4.99-14.62,12-17.99,19.84-4.86-6.74-12.77-12.03-21.92-14.66-7.33,3.62-14.66,7.25-21.99,10.87.66-3.18,6.88-4.35,9.24-1.74s-.97,6.98-4.96,6.48c.95-3.79-6.64-5.71-10.25-3.15s-3.94,6.9-4.01,10.76c-8.5-1.75-15.34-7.84-16.62-14.79,1.99,4.28-5.32,8.25-10.75,6.86s-8.72-5.69-11.54-9.67c-3.35,4.05-6.69,8.09-10.04,12.14,3.77-1.91,3.3-7.29-.78-8.75s-9.4,1.82-8.68,5.35c-.29-3.28-.57-6.55-.86-9.83-9.78,5.16-22.96,5.88-33.52,1.81-2.28,6.77-4.56,13.53-6.84,20.3-4.03-7-15.13-10.78-24.22-8.25-3.41-5.13-6.82-10.27-10.24-15.4-6.72,5.37-13.43,10.75-20.15,16.12-6.05-5.18-12.09-10.37-18.14-15.55-5.8,7.66-9.31,16.43-10.18,25.36-4.72-5.1-9.44-10.19-14.16-15.29,3.23,2.25-2.07,6.64-6.03,5.34s-5.45-5.09-6.48-8.42c-5.61,4.36-11.23,8.73-16.84,13.09-4.87-7.88-9.73-15.75-14.6-23.63-3.19,3.81-6.38,7.62-9.57,11.43-4.47-3.72-8.93-7.44-13.4-11.16-3.81,8.56-7.63,17.13-11.44,25.69-4-6.81-7.99-13.62-11.99-20.43-3.62,4.46-7.24,8.92-10.87,13.39-1.28-5.67-13.91-5.77-15.34-.13-.4-6.4-.81-12.8-1.21-19.2-3.76,4.63-7.51,9.26-11.27,13.9l-8.22-9.89c-6.76,6.26-9.52,15.16-7.2,23.22-9.03-.8-16.65-7.51-16.78-14.79-2.82,6.93-11.59,12.01-20.69,11.97-1.32-4.05-2.63-8.1-3.95-12.15.24,9.96-22.54,11.86-24.87,2.07-2.53,1.76-5.05,3.52-7.58,5.28L2.71.5Z"/>
  </g>
</svg>