<?xml version="1.0" encoding="UTF-8"?>
<svg id="_Слой_2" data-name="Слой 2" xmlns="http://www.w3.org/2000/svg" viewBox="0 0 516.75 18.55">
  <g id="_Слой_1-2" data-name="Слой 1">
    <g>
      <path d="m213.44,9.62c.41,1.2.85,2.36,1.21,3.57.36,1.2.07,1.93-.75,2.35-2.32,1.21-4.59-.21-5.71-4.03-.53-1.8-1.23-2.29-2.38-2.27-3.19.07-6.38-.07-9.57.04-2.53.09-4.94,1.43-7.43,2.02-8.22,1.97-16.46,2.64-24.74.96-.3-.06-.62-.16-.97.3.32,1.19.87,2.29,1.04,3.63.19,1.41-.06,2.13-1.04,2.24-1.82.2-3.29-1.32-3.67-4.37-.25-2.04-.96-2.64-2.1-2.8-7.22-1.04-14.45-1.94-21.71-1.46-4.37.29-8.7,1.17-13.03,2.08-2.44.51-4.91.69-7.37,1.02-1.03.14-1.56.56-.76,2.3.71,1.56.28,2.54-.86,2.88-1.54.46-2.8-.32-3.53-2.46-.63-1.88-1.49-2.48-2.82-2.61-5.75-.57-11.46-1.73-17.11-3.53-.4-.13-.82-.14-1.23-.14-6.43,0-12.86.01-19.29.04-.44,0-1.03-.29-1.29.4-.3.78.29,1.27.51,1.85,1.22,3.04.9,4.07-1.39,4.41-2.22.34-3.67-1.49-4.52-4.39-.55-1.9-1.34-2.25-2.53-2.31-6.04-.3-11.99.48-17.94,2.27-7.83,2.36-15.76,2-23.67.95-.24-.03-.49-.06-.86-.1.34,1.47.66,2.72.93,4,.28,1.33-.09,1.93-.96,2.06-1.69.25-3.23-1.1-3.61-3.79-.38-2.71-1.4-3.3-2.96-3.46-3.43-.35-6.86-.93-10.29-1.44-.44-.07-1.08,0-1.05-.97.03-1.12.73-.96,1.21-.97,3.34-.03,6.69-.01,10.03-.01,4.48,0,8.95-.03,13.43.02,1.05.01,1.67-.43,2.05-2.16.77-3.57,2.59-5.23,5.04-5.1,1.01.06,1.39.73,1.22,2.29-.19,1.69-.73,3.12-1.43,4.39.47.78.96.55,1.39.55,5.56.03,11.11,0,16.67.05,1.62.01,3.13-.92,4.72-1.15.7-.1.85-.98.93-1.92.23-2.6,1.3-3.88,2.86-4.38,1.34-.43,1.74.09,1.6,2.15-.2,2.89-.19,3.06,1.65,2.74,3.34-.58,6.68-.39,10.02-.44,5.94-.09,11.77,1.5,17.61,3.01,1.85.48,3.69.24,5.54.3,1,.03,1.4-.98,1.78-2.23,1.06-3.47,2.79-4.84,5.15-4.23,1.69.44,1.89,1.04,1.19,3.53-.81,2.9-.81,2.93,1.27,2.93,9.52,0,19.04.31,28.55-.08,12.19-.5,24.37.5,36.56.1,1.63-.05,2.79-.19,3.2-3.37.4-3.07,3.58-5.21,5.46-4.24.48.25.66.69.57,1.44-.15,1.27-.35,2.5-.77,3.64-.77,2.08-.69,2.29.9,2.35,1.95.08,3.91.17,5.86.12,4.82-.13,9.67.52,14.45-1.27,1.13-.42,1.75-1.01,1.93-2.78.15-1.44.65-2.54,1.54-3.08.8-.48,1.65-1.52,2.46-.63.74.82.31,2.22.14,3.37-.27,1.85.58,1.6,1.2,1.49,3.9-.67,7.81-.44,11.71-.47,5.12-.04,10.12,1.51,15.16,2.62,2.42.54,4.83.2,7.24.29.89.03,1.24-.86,1.52-1.98.94-3.66,3.06-4.45,5.21-4.15,1.6.22,1.82,1.03,1.18,3.38-.75,2.74-.75,2.76,1.12,2.76,10.19-.02,20.38.05,30.56-.14,2.76-.05,5.51-.92,8.27-1.38.69-.11.95-.74,1.1-1.7.35-2.25,1.31-3.55,2.71-4.17,1.54-.68,2.19.06,1.73,2.41-.45,2.29.07,2.6,1.34,2.53,2.77-.14,5.54-.55,8.32-.56,6.25-.03,12.41,1.02,18.56,2.67,2.35.63,4.72.21,7.09.26.82.02,1.12-.86,1.42-1.86.99-3.25,3.07-4.89,5.32-4.28,1.39.38,1.67,1.13,1.12,3.14-.26.94-.58,1.84-.91,2.9,2.95.96,5.78.31,8.59.43,6.01.25,12.02.04,18.03.08,1.76.01,3.49-.18,5.2-.83,3.61-1.38,7.23-1.41,10.86-.16,2.27.78,4.57,1.03,6.89,1,6.07-.08,12.14-.06,18.21-.01,1.19,0,1.94-.28,2.34-2.45.65-3.57,2.63-5.38,4.96-5.23,1.09.07,1.54.81,1.22,2.45-.21,1.07-.43,2.18-.81,3.12-.66,1.64-.11,2.08.77,2.04,7.03-.31,14.1,1.09,21.08-1.3.75-.26,1.16-.57,1.3-1.88.33-2.95,1.27-4.22,3.18-4.74,1.06-.29,1.46.38,1.31,1.98-.04.4-.07.81-.16,1.18-.53,1.95-.25,2.42,1.16,2.19,7.6-1.24,15.2-1,22.75.93,3.62.92,7.23,1.47,10.9,1.28.98-.05,1.58-.49,2.01-2.01.97-3.51,3.43-5.03,5.8-3.91,1.38.65.84,2.07.55,3.29-.62,2.61-.65,2.61,1.18,2.6,10.55-.02,21.1-.07,31.64-.05.73,0,2.06-.64,2.04.99-.02,1.58-1.34.94-2.08.9-4.31-.25-8.46,1.61-12.71,2.18-2.56.35-5.11.86-7.67,1.23-.81.12-1.47-.05-.79,1.82.8,2.19.4,2.94-1.25,3.13-1.52.18-2.62-.64-3.21-2.89-.38-1.45-1.02-1.97-2.03-2.07-5.8-.57-11.57-1.62-17.28-3.38-.7-.22-1.43-.35-2.14-.35-6.23-.03-12.45-.02-18.68,0-.48,0-1.14-.41-1.41.42-.22.68.31,1.27.54,1.87,1.23,3.2.99,3.97-1.38,4.34-2.04.32-3.69-1.06-4.53-4.28-.51-1.93-1.26-2.34-2.47-2.41-6.71-.36-13.35.57-19.98,1.99-6.79,1.46-13.63,1.61-20.47,1.47-1.84-.04-1.84-.03-1.35,2.68.49,2.73.13,3.42-1.66,3-1.36-.32-2.49-1.26-2.79-3.56-.26-2-1.02-2.65-2.23-2.93-7.89-1.85-15.81-3.39-23.8-2.49-3.78.43-7.52,1.73-11.29,2.49-2.19.44-4.4.59-6.6.89-1.08.15-2.05.36-1.07,2.66.62,1.46.23,2.37-.87,2.67-1.67.45-3.02-.51-3.83-2.99-.35-1.06-.67-2.04-1.53-2.06-7.78-.19-15.35-3.98-23.13-3.59-5.14.26-10.27-.4-15.4.25-1.22.16-1.62.34-.83,2.25,1.22,2.93,1.05,3.38-1.1,3.95-2.2.58-4.03-.8-4.91-4.01-.44-1.62-1.05-2.15-2.11-2.14-5.35.05-10.7-.12-16.05.1-2.45.1-4.9.81-7.34,1.42-3.66.92-7.35,1.28-11.03,1.89-.93.15-1.17.45-.65,1.9.8,2.24.57,2.73-1.03,3.08-1.64.36-2.8-.66-3.55-2.9-.34-1.02-.6-2-1.51-2.05-6.08-.34-12.06-1.89-18.05-3.4-1.28-.32-2.56-.39-3.84-.38-5.45.01-10.91,0-16.36.01-.6,0-1.22-.24-1.87.35Zm-23.64-.26c-11.16,0-22.32.02-33.48.02,11.16,2.37,22.32,3.65,33.48-.02Zm169.17-.11l-29.17.02c9.72,3.01,19.45,2.89,29.17-.02Zm-233.78.15c-9.71,0-19.41.01-29.12.02,9.72,2.86,19.44,2.99,29.12-.02Zm263.28-.21c6.32,2.9,28.09,2.04,33.48-.02l-33.48.02Zm-373.52.49c9.35,2.81,25.1,2.56,29.44-.02-9.79,0-19.62.01-29.44.02Zm253.23.19c-8.64-.53-17.26-.73-25.89-.26,8.62,2.31,17.26,2.64,25.89.26Zm207.82-.44c7.26,2.5,20.9,2.42,26.32.12-8.86-.48-17.6-.5-26.32-.12Zm-274.61-1.57c8.6-.31,17.19.92,25.79-.31-8.6-2.04-17.2-2.3-25.79.31Zm234.65-.18c8.31-.16,16.61.5,24.92-.11-8.31-1.9-16.62-1.97-24.92.11Zm-379.44.14c8.38-.34,16.76.68,25.13-.12-8.39-2.15-16.77-2.16-25.13.12Zm234.73-.21c8.15,0,16.3-.01,24.45-.02-8.17-2.07-16.34-1.5-24.45.02Z"/>
      <path d="m120.01,7.37c-.64-.13-1.57.2-1.91-1.19-.31-1.3.34-2.24.86-3.12,1.04-1.74,2.37-1.74,3.71-1.36.82.23.83,1.21.61,2.26-.45,2.11-1.66,3.42-3.28,3.42Z"/>
      <path d="m500.75,1.25c.57.08,1.36-.21,1.7.92.34,1.14-.13,2.18-.55,3.08-.79,1.72-2.77,2.39-4.05,1.53-.68-.46-.74-1.14-.53-2.12.43-2.02,1.75-3.38,3.43-3.4Z"/>
      <path d="m353.9,7.19c-.66-.26-1.82.31-1.84-1.8-.03-2.2,1.53-4.04,3.34-4.01.79.01,1.78-.2,1.78,1.78,0,2.13-1.51,4.02-3.27,4.03Z"/>
      <path d="m265.39,7.3c-.76-.15-1.63.07-1.9-1.26-.24-1.16.18-2.19.75-2.96.35-.47.72-.93,1.13-1.23,1.17-.87,3-.49,3.25.6.29,1.3-1.08,4.21-2.22,4.65-.34.13-.71.14-1,.2Z"/>
    </g>
  </g>
</svg>